<svg width="24" height="24" viewBox="0 0 24 24" fill="none" xmlns="http://www.w3.org/2000/svg">
<path d="M12 8.75421C10.2075 8.75421 8.75427 10.2074 8.75427 12C8.75427 13.7926 10.2075 15.2457 12 15.2457C13.7926 15.2457 15.2458 13.7926 15.2458 12C15.2458 10.2074 13.7926 8.75421 12 8.75421ZM9.75427 12C9.75427 10.7597 10.7597 9.75421 12 9.75421C13.2403 9.75421 14.2458 10.7597 14.2458 12C14.2458 13.2403 13.2403 14.2457 12 14.2457C10.7597 14.2457 9.75427 13.2403 9.75427 12Z" fill="#D29868"/>
<path d="M13.7965 5.34338C13.2685 3.55221 10.7315 3.55221 10.2035 5.34338L10.1097 5.66179C9.95246 6.19519 9.34321 6.44755 8.85487 6.18155L8.56336 6.02276C6.9235 5.12953 5.12953 6.9235 6.02276 8.56336L6.18155 8.85487C6.44755 9.34321 6.19519 9.95246 5.66179 10.1097L5.34338 10.2035C3.55221 10.7315 3.55221 13.2685 5.34338 13.7965L5.66179 13.8903C6.19519 14.0475 6.44755 14.6568 6.18155 15.1451L6.02276 15.4366C5.12953 17.0765 6.92349 18.8705 8.56335 17.9772L8.85487 17.8185C9.34321 17.5525 9.95246 17.8048 10.1097 18.3382L10.2035 18.6566C10.7315 20.4478 13.2685 20.4478 13.7965 18.6566L13.8903 18.3382C14.0475 17.8048 14.6568 17.5525 15.1451 17.8185L15.4366 17.9772C17.0765 18.8705 18.8705 17.0765 17.9772 15.4366L17.8185 15.1451C17.5525 14.6568 17.8048 14.0475 18.3382 13.8903L18.6566 13.7965C20.4478 13.2685 20.4478 10.7315 18.6566 10.2035L18.3382 10.1097C17.8048 9.95246 17.5525 9.34321 17.8185 8.85487L17.9772 8.56335C18.8705 6.92349 17.0765 5.12953 15.4366 6.02276L15.1451 6.18155C14.6568 6.44755 14.0475 6.19519 13.8903 5.66179L13.7965 5.34338ZM11.1627 5.6261C11.4088 4.7913 12.5912 4.7913 12.8373 5.6261L12.9311 5.94451C13.2685 7.08899 14.5757 7.63046 15.6235 7.05972L15.915 6.90094C16.6793 6.48463 17.5154 7.32074 17.0991 8.08501L16.9403 8.37653C16.3695 9.42433 16.911 10.7315 18.0555 11.0689L18.3739 11.1627C19.2087 11.4088 19.2087 12.5912 18.3739 12.8373L18.0555 12.9311C16.911 13.2685 16.3695 14.5757 16.9403 15.6235L17.0991 15.915C17.5154 16.6793 16.6793 17.5154 15.915 17.0991L15.6235 16.9403C14.5757 16.3695 13.2685 16.911 12.9311 18.0555L12.8373 18.3739C12.5912 19.2087 11.4088 19.2087 11.1627 18.3739L11.0689 18.0555C10.7315 16.911 9.42433 16.3695 8.37653 16.9403L8.08501 17.0991C7.32074 17.5154 6.48463 16.6793 6.90093 15.915L7.05972 15.6235C7.63046 14.5757 7.089 13.2685 5.94452 12.9311L5.6261 12.8373C4.7913 12.5912 4.7913 11.4088 5.6261 11.1627L5.94452 11.0689C7.08899 10.7315 7.63046 9.42433 7.05972 8.37653L6.90094 8.08501C6.48463 7.32074 7.32074 6.48463 8.08501 6.90093L8.37653 7.05972C9.42433 7.63046 10.7315 7.089 11.0689 5.94452L11.1627 5.6261Z" fill="#D29868"/>
</svg>
