<svg width="24" height="24" viewBox="0 0 24 24" fill="none" xmlns="http://www.w3.org/2000/svg">
<path d="M7.5 17.4H13.8M7.5 13.8H8.4M7.5 10.2H10.2M7.5 3H16.05L20.1 7.05V18.3" stroke="#D29868" stroke-width="1.5" stroke-linecap="round" stroke-linejoin="round"/>
<path d="M3.8999 19.65V7.05001C3.8999 6.69197 4.04213 6.34859 4.29531 6.09542C4.54848 5.84224 4.89186 5.70001 5.2499 5.70001H14.0267C14.1699 5.70014 14.3071 5.75711 14.4083 5.85841L17.2415 8.69161C17.2919 8.74192 17.3318 8.8017 17.359 8.8675C17.3862 8.93329 17.4001 9.00382 17.3999 9.07501V19.65C17.3999 20.0081 17.2577 20.3514 17.0045 20.6046C16.7513 20.8578 16.4079 21 16.0499 21H5.2499C4.89186 21 4.54848 20.8578 4.29531 20.6046C4.04213 20.3514 3.8999 20.0081 3.8999 19.65Z" stroke="#D29868" stroke-width="1.5" stroke-linecap="round" stroke-linejoin="round"/>
<path d="M13.7998 5.70001V8.76001C13.7998 8.90323 13.8567 9.04058 13.958 9.14185C14.0592 9.24312 14.1966 9.30001 14.3398 9.30001H17.3998" stroke="#D29868" stroke-width="1.5" stroke-linecap="round" stroke-linejoin="round"/>
</svg>
