<svg width="19" height="24" viewBox="0 0 19 24" fill="none" xmlns="http://www.w3.org/2000/svg">
<path d="M6.49355 20.1127C6.47107 20.1601 6.44724 20.2067 6.41701 20.2659C6.4125 20.2748 6.40784 20.2839 6.40302 20.2933C6.40842 20.3026 6.41383 20.3118 6.41924 20.321L6.37609 20.3463L6.33149 20.3237C6.33651 20.3138 6.34136 20.3042 6.34606 20.295C6.07032 19.8244 5.80976 19.3854 5.54919 18.9463L5.54918 18.9463C5.36287 18.6358 5.3028 18.6108 4.95786 18.6702C4.57994 18.7348 4.20167 18.7962 3.80502 18.8607C3.67391 18.8819 3.5408 18.9036 3.40502 18.9257L3.39048 18.9567L3.34521 18.9355L3.33715 18.8861C3.34843 18.8843 3.3597 18.8825 3.37095 18.8806L6.49355 20.1127ZM6.49355 20.1127C6.99577 19.0444 7.49776 17.9747 7.99953 16.9037L6.49355 20.1127ZM7.83946 16.3979L7.83954 16.3977L7.83528 16.3964C7.74305 16.3667 7.64617 16.3542 7.54945 16.3595C7.39509 16.3542 7.24627 16.3775 7.10178 16.408C7.04193 16.4207 6.98399 16.4343 6.9267 16.4477C6.84209 16.4676 6.75887 16.4871 6.67289 16.5028L6.68188 16.552L6.67294 16.5028C6.30824 16.5691 6.02305 16.5407 5.79606 16.4162C5.56915 16.2918 5.39224 16.067 5.25337 15.7234C5.22156 15.6428 5.19326 15.5633 5.16231 15.4763C5.14153 15.4179 5.11956 15.3562 5.09453 15.2885L5.05309 15.1765L5.00237 15.2846L3.29995 18.9143L3.25966 19.0001L3.35328 18.9848C3.50971 18.9593 3.66257 18.9344 3.81283 18.91C4.20956 18.8456 4.58814 18.7841 4.96628 18.7195L4.96634 18.7195C5.14174 18.6893 5.22704 18.6849 5.29203 18.7149C5.35721 18.745 5.41167 18.8143 5.50623 18.9719C5.77624 19.4268 6.04616 19.8817 6.33294 20.3716L6.37926 20.4507L6.42069 20.3689C6.43541 20.3398 6.44881 20.3136 6.46119 20.2894C6.4916 20.2298 6.51591 20.1822 6.53872 20.1342L6.5388 20.134C7.04103 19.0656 7.54303 17.9959 8.04481 16.9249C8.07775 16.8548 8.10254 16.795 8.1154 16.7433C8.12839 16.691 8.13047 16.642 8.11247 16.5963C8.09451 16.5506 8.05961 16.516 8.01465 16.486C7.97004 16.4562 7.91124 16.4283 7.83946 16.3979Z" stroke="#D29868" stroke-width="0.1"/>
<path d="M11.4046 15.7543L11.4046 15.7539C10.9872 15.7109 10.6497 15.9217 10.324 16.201C10.1457 16.3696 9.95821 16.5282 9.76248 16.6762L9.76075 16.6775L9.76073 16.6775C9.66419 16.7441 9.56357 16.7815 9.46132 16.7819C9.35859 16.7822 9.25932 16.7453 9.16619 16.6723C8.99431 16.5377 8.82278 16.3975 8.66314 16.246C8.21079 15.8181 7.70207 15.646 7.08994 15.7944C7.0897 15.7945 7.08947 15.7945 7.08923 15.7946L11.4046 15.7543ZM11.4046 15.7543L11.4111 15.7541M11.4046 15.7543L11.4111 15.7541M11.4111 15.7541C11.6062 15.7489 11.801 15.7711 11.9899 15.82L11.9907 15.8202M11.4111 15.7541L11.9907 15.8202M11.9907 15.8202C12.2108 15.8733 12.3839 15.9123 12.5223 15.9263C12.661 15.9404 12.7725 15.9302 12.8654 15.8776C12.9584 15.8249 13.0242 15.7345 13.0825 15.6074C13.1407 15.4805 13.1942 15.3102 13.2587 15.0904C13.3618 14.739 13.5189 14.4567 13.7378 14.2394C13.9566 14.0221 14.2396 13.8674 14.5983 13.7747L14.5984 13.7747M11.9907 15.8202L14.5984 13.7747M14.5984 13.7747C14.8033 13.7211 14.9654 13.6709 15.0887 13.6122C15.2126 13.5532 15.302 13.4835 15.3559 13.3883C15.4097 13.2932 15.4241 13.1798 15.4128 13.042C15.4015 12.9045 15.364 12.7374 15.3091 12.5314L15.3091 12.5313M14.5984 13.7747L15.3091 12.5313M15.3091 12.5313C15.214 12.179 15.2056 11.8593 15.2834 11.5641C15.3612 11.2689 15.5261 10.9949 15.783 10.7353L15.783 10.7353L15.3091 12.5313ZM15.3051 7.47267L15.3051 7.4728C15.2131 7.82066 15.2066 8.13704 15.2847 8.429C15.3628 8.72094 15.5264 8.9918 15.7796 9.24731C15.7796 9.24734 15.7796 9.24736 15.7796 9.24739L15.7441 9.28259L15.3051 7.47267ZM15.3051 7.47267C15.3615 7.25735 15.4007 7.0848 15.4132 6.94425C15.4258 6.80331 15.4121 6.68857 15.357 6.59266C15.3018 6.49672 15.2095 6.42725 15.0812 6.36746C14.9532 6.30786 14.7839 6.25545 14.5686 6.19672L14.5685 6.19671M15.3051 7.47267L14.5685 6.19671M14.5685 6.19671C14.2166 6.10104 13.9364 5.94608 13.7203 5.72953C13.5043 5.51299 13.35 5.23242 13.2536 4.88179M14.5685 6.19671L13.2536 4.88179M4.39096 6.19138C4.16717 6.25323 3.99278 6.30619 3.86216 6.36538C3.73123 6.42472 3.63786 6.49308 3.5832 6.58945C3.52862 6.68567 3.51735 6.80152 3.53195 6.94526C3.54654 7.08877 3.58778 7.26716 3.64506 7.49258L3.64507 7.4926C3.7311 7.83044 3.73629 8.14074 3.65981 8.42682C3.58336 8.71282 3.42445 8.97769 3.17762 9.22354L3.17761 9.22353L3.17694 9.22423C3.04129 9.36467 2.91408 9.51302 2.79599 9.66851M4.39096 6.19138L5.87178 15.6394C5.8717 15.6392 5.87161 15.6391 5.87153 15.6389C5.78186 15.4294 5.704 15.2151 5.63833 14.9969L5.638 14.9958L5.63801 14.9958C5.46019 14.3521 5.04055 13.97 4.40572 13.7927L4.40565 13.7927C4.24738 13.7482 4.09289 13.69 3.94055 13.6326C3.91239 13.622 3.8843 13.6115 3.85627 13.601L3.87375 13.5542L3.85657 13.6011C3.72762 13.5539 3.63235 13.4812 3.57672 13.3817C3.5212 13.2824 3.5089 13.163 3.53293 13.0296L3.53301 13.0291C3.54453 12.9684 3.55576 12.9073 3.56702 12.8461C3.59839 12.6756 3.62994 12.5041 3.66839 12.3348L3.66848 12.3344C3.81045 11.7312 3.62951 11.2295 3.20847 10.7887L3.2084 10.7886C3.06235 10.6351 2.92819 10.4702 2.79663 10.3069L2.7966 10.3069C2.71476 10.2051 2.67208 10.0974 2.67266 9.9868C2.67324 9.87646 2.7168 9.76941 2.79599 9.66851M4.39096 6.19138C4.7393 6.09478 5.01391 5.93879 5.22436 5.72278M4.39096 6.19138L5.22436 5.72278M2.79599 9.66851C2.79607 9.6684 2.79616 9.6683 2.79624 9.66819L2.83556 9.69908L2.79574 9.66884C2.79582 9.66873 2.79591 9.66862 2.79599 9.66851ZM14.5858 13.7263C13.854 13.9153 13.4207 14.3608 13.2107 15.0764C12.9522 15.9573 12.8854 15.9843 12.0024 15.7716C11.809 15.7215 11.6095 15.6988 11.4098 15.7041L14.5858 13.7263ZM14.5858 13.7263C15.4039 13.5123 15.4802 13.3672 15.2608 12.5443L14.5858 13.7263ZM10.1916 3.65935L10.1917 3.65942C10.4529 3.92165 10.7295 4.08972 11.0281 4.17016C11.3267 4.25061 11.6507 4.24433 12.0082 4.15256L10.1916 3.65935ZM10.1916 3.65935C10.0395 3.50724 9.91241 3.39049 9.79777 3.31176C9.68273 3.23275 9.57604 3.18906 9.46527 3.18906C9.35449 3.18906 9.24776 3.23274 9.13265 3.31175C9.01793 3.39048 8.89073 3.50722 8.73845 3.65933L8.73836 3.65942M10.1916 3.65935L8.73836 3.65942M13.2536 4.88179C13.2536 4.88175 13.2536 4.8817 13.2536 4.88166L13.2053 4.8949L13.2536 4.88179ZM8.73836 3.65942C8.47718 3.92159 8.2003 4.089 7.90157 4.16878C7.60277 4.24859 7.2787 4.24164 6.92181 4.14985L6.92177 4.14984M8.73836 3.65942L6.92177 4.14984M6.92177 4.14984C6.70796 4.09504 6.53808 4.05665 6.40082 4.04441C6.26316 4.03214 6.15179 4.04547 6.05914 4.10042C5.96661 4.15529 5.90068 4.24695 5.84351 4.37385C5.78645 4.50049 5.73548 4.66837 5.67648 4.88228L5.67639 4.88261M6.92177 4.14984L5.67639 4.88261M5.67639 4.88261C5.58364 5.2281 5.43489 5.50671 5.22436 5.72278M5.67639 4.88261L5.22436 5.72278M3.71715 12.3459C3.67895 12.514 3.64767 12.6841 3.61636 12.8543C3.60507 12.9157 3.59377 12.9771 3.58214 13.0384L3.71715 12.3459ZM9.55328 14.7449L9.55326 14.7449C6.95187 14.7896 4.75634 12.6835 4.71893 10.1115C4.68287 7.40595 6.74595 5.28199 9.46037 5.24056L9.4604 5.24056C11.9926 5.20049 14.1778 7.31165 14.2178 9.84163V9.84164C14.2613 12.5278 12.1933 14.7008 9.55328 14.7449Z" stroke="#D29868" stroke-width="0.1"/>
<path d="M9.4659 5.8453C7.12302 5.86785 5.30182 7.72241 5.32572 10.0614L9.4659 5.8453ZM5.32572 10.0614C5.34828 12.317 7.23903 14.1559 9.50997 14.1388C11.7973 14.121 13.6378 12.2323 13.6098 9.92866C13.5878 7.669 11.7139 5.82344 9.46591 5.8453L5.32572 10.0614Z" stroke="#D29868" stroke-width="0.1"/>
<path d="M13.7616 15.5312L13.7615 15.5313C13.6079 15.9779 13.4312 16.2507 13.1864 16.3947C12.9416 16.5387 12.6174 16.5605 12.1517 16.4764L12.1516 16.4764C12.0825 16.4641 12.0136 16.4496 11.9437 16.4349L11.9424 16.4346C11.8733 16.42 11.8033 16.4053 11.7328 16.3926C11.5909 16.3673 11.4449 16.3502 11.2937 16.3603L11.2937 16.3603L11.2933 16.3604C11.0968 16.375 10.95 16.425 10.8806 16.5341C10.8101 16.6447 10.8333 16.7928 10.9143 16.9647C11.3341 17.8602 11.7538 18.7562 12.1732 19.6526L12.1732 19.6527C12.2423 19.7998 12.3125 19.9463 12.3858 20.0991C12.4286 20.1883 12.4724 20.2797 12.5176 20.3746L12.5581 20.4595L12.6058 20.3784C12.6926 20.231 12.7782 20.0866 12.8626 19.9441C13.0663 19.6005 13.2633 19.2682 13.4534 18.9325L13.4534 18.9324C13.5131 18.8268 13.5788 18.7626 13.6543 18.7287C13.73 18.6947 13.8222 18.6881 13.9406 18.7106L13.9407 18.7106C14.3276 18.7833 14.7163 18.8458 15.1165 18.9102C15.2707 18.935 15.4266 18.9601 15.5848 18.9862L15.6784 19.0016L15.6382 18.9157L13.9385 15.2827L13.8863 15.171L13.8459 15.2875L13.7616 15.5312ZM11.9324 16.4836C11.7237 16.4396 11.5149 16.3956 11.297 16.4102L13.8088 15.5475C13.499 16.448 13.0818 16.6951 12.1428 16.5256C12.0725 16.5131 12.0025 16.4983 11.9324 16.4836Z" stroke="#D29868" stroke-width="0.1"/>
<mask id="path-5-outside-1_581_2886" maskUnits="userSpaceOnUse" x="1" y="1.53149" width="17" height="21" fill="black">
<rect fill="white" x="1" y="1.53149" width="17" height="21"/>
<path d="M14.4381 14.8178C14.3308 14.593 14.4044 14.5303 14.5914 14.4729C14.7784 14.4155 14.9599 14.3595 15.1402 14.2913C15.9273 13.9923 16.231 13.5265 16.0083 12.7239C15.8058 11.9901 15.9468 11.4521 16.4862 10.9128C17.1092 10.2891 17.1126 9.69773 16.4909 9.07468C15.9441 8.52656 15.8085 7.98181 16.0103 7.23995C16.229 6.43667 15.9131 5.9709 15.124 5.68739C14.989 5.63879 14.854 5.59761 14.719 5.56116C14.2923 5.44843 14.021 5.19057 13.9089 4.75517C13.8505 4.53455 13.7732 4.31933 13.6781 4.11187C13.4229 3.54485 12.9895 3.31399 12.3739 3.40984C12.1987 3.43121 12.0252 3.46505 11.8548 3.5111C11.3769 3.6596 10.9861 3.5435 10.6445 3.18168C10.4861 3.01868 10.3105 2.87337 10.1207 2.74831C9.70418 2.4675 9.27486 2.45738 8.84486 2.73009C8.62542 2.87157 8.42353 3.03856 8.24341 3.22758C7.93223 3.55092 7.56839 3.64003 7.13839 3.52797C6.96019 3.4814 6.77793 3.44629 6.59837 3.41524C5.94764 3.30589 5.5001 3.54485 5.24021 4.15237C5.15569 4.33463 5.08791 4.52419 5.03771 4.71872C4.93105 5.18719 4.64214 5.45383 4.18177 5.56993C3.94475 5.6251 3.71535 5.70897 3.49864 5.81969C3.0403 6.06203 2.83779 6.44207 2.88167 6.96049C2.91236 7.23619 2.96152 7.50951 3.02882 7.77863C3.09632 8.09454 3.0484 8.37805 2.82631 8.62241C2.69131 8.77227 2.5563 8.92077 2.42467 9.07603C1.87722 9.73081 1.83672 10.2911 2.43412 10.8885C2.98495 11.44 3.13615 11.9881 2.92892 12.7435C2.70818 13.5461 3.03085 14.0139 3.8186 14.296C3.99825 14.3663 4.18143 14.4271 4.3674 14.4783C4.58679 14.5309 4.58814 14.6261 4.50241 14.8111C3.8159 16.259 3.13885 17.7137 2.4591 19.1616C2.38755 19.3142 2.35042 19.4661 2.46652 19.6112C2.58263 19.7563 2.73046 19.7617 2.90057 19.7313C3.52969 19.62 4.16084 19.5207 4.79065 19.4107C4.93173 19.3857 5.0134 19.4141 5.09036 19.5511C5.39952 20.0992 5.72623 20.6379 6.04417 21.1813C6.13193 21.3312 6.22711 21.4722 6.42421 21.4675C6.63482 21.4628 6.72055 21.3089 6.79818 21.1422C7.18025 20.3204 7.56411 19.4998 7.94978 18.6803L8.67273 17.1372C9.23841 17.5422 9.6495 17.5422 10.2719 17.1487C10.309 17.2243 10.3468 17.2992 10.3826 17.3748C10.9676 18.6205 11.5511 19.8661 12.1329 21.1118C12.2133 21.2853 12.2909 21.4581 12.5123 21.4662C12.7337 21.4743 12.8242 21.3042 12.9173 21.1408C13.2271 20.6116 13.5458 20.0878 13.8482 19.5552C13.9224 19.4202 13.9987 19.3824 14.1445 19.408C14.7574 19.5153 15.3724 19.6105 15.9846 19.7178C16.1676 19.7509 16.3384 19.7773 16.47 19.6146C16.6117 19.4391 16.5307 19.271 16.4491 19.0982C15.7794 17.6705 15.1193 16.2354 14.4381 14.8178ZM7.99973 16.9037C7.49751 17.9743 6.99551 19.0446 6.49374 20.1148C6.46202 20.1823 6.42624 20.2498 6.37629 20.3483C6.0867 19.8583 5.81871 19.4033 5.54938 18.9483C5.36577 18.6378 5.30299 18.6108 4.95805 18.6722C4.43693 18.7613 3.91513 18.8444 3.34541 18.9375L5.04446 15.3052C5.10588 15.4746 5.15044 15.6096 5.20376 15.7413C5.4866 16.4419 5.93819 16.6863 6.6787 16.5513C6.96694 16.4986 7.24842 16.3981 7.54679 16.4089C7.63814 16.4036 7.72968 16.4153 7.8168 16.4433C8.10571 16.5648 8.13068 16.6249 7.99973 16.9037ZM10.2948 16.1611C10.1175 16.3287 9.93118 16.4865 9.73658 16.6336C9.55567 16.7585 9.37476 16.7687 9.20128 16.6303C9.0278 16.4919 8.85971 16.3603 8.70176 16.207C8.24206 15.7689 7.71622 15.5901 7.08169 15.7433C6.83893 15.8101 6.59025 15.8533 6.33916 15.8722C6.13665 15.8817 5.99557 15.8047 5.92199 15.6171C5.83295 15.4091 5.75565 15.1964 5.69046 14.9798C5.50753 14.3176 5.07348 13.9234 4.42343 13.7418C4.23847 13.6898 4.05891 13.6183 3.87801 13.5515C3.63635 13.463 3.54049 13.2869 3.5864 13.0357C3.62757 12.8042 3.66672 12.572 3.7214 12.3432C3.86451 11.7208 3.67617 11.2024 3.24888 10.7514C3.10443 10.5996 2.97144 10.4362 2.83981 10.2729C2.68726 10.0832 2.69131 9.88539 2.83981 9.69638C2.95621 9.54333 3.08154 9.39727 3.21513 9.25896C3.71938 8.75674 3.87126 8.16947 3.69575 7.48026C3.46624 6.5764 3.51012 6.4873 4.40655 6.23956C5.11533 6.04245 5.53588 5.59963 5.72893 4.89963C5.96519 4.04302 6.05767 3.98294 6.91361 4.20233C7.64061 4.38931 8.24544 4.23338 8.77804 3.69875C9.38556 3.09123 9.55432 3.09123 10.1605 3.69875C10.6931 4.23338 11.2966 4.39201 12.0249 4.20503C12.8815 3.98429 12.9781 4.04504 13.2096 4.89895C13.404 5.61313 13.8401 6.05325 14.5597 6.24901C15.419 6.48257 15.4844 6.60138 15.2563 7.45731C15.0673 8.16609 15.2273 8.75809 15.7437 9.27989C16.3735 9.91576 16.3762 10.0649 15.747 10.6974C15.2232 11.2267 15.0666 11.8234 15.2603 12.5416C15.4824 13.3645 15.4061 13.5096 14.5853 13.7236C13.8536 13.9153 13.4202 14.3608 13.2103 15.0737C12.9517 15.9512 12.8849 15.9816 12.002 15.7689C11.8085 15.7188 11.609 15.6961 11.4093 15.7014C10.9705 15.6589 10.6188 15.8823 10.2955 16.1638L10.2948 16.1611ZM13.9501 18.6587C13.699 18.6115 13.5343 18.6817 13.4101 18.9051C13.1401 19.3776 12.8593 19.8502 12.5629 20.3504C12.4401 20.0925 12.328 19.8616 12.2187 19.6287C11.7965 18.7346 11.3764 17.8395 10.9584 16.9435C10.8004 16.606 10.9084 16.4392 11.2959 16.4102C11.5868 16.3886 11.8616 16.4777 12.1417 16.5256C13.0807 16.693 13.4978 16.448 13.8077 15.5475L13.8921 15.3038L15.5938 18.9355C15.0241 18.843 14.4881 18.762 13.9481 18.6614L13.9501 18.6587Z"/>
</mask>
<path d="M14.4381 14.8178C14.3308 14.593 14.4044 14.5303 14.5914 14.4729C14.7784 14.4155 14.9599 14.3595 15.1402 14.2913C15.9273 13.9923 16.231 13.5265 16.0083 12.7239C15.8058 11.9901 15.9468 11.4521 16.4862 10.9128C17.1092 10.2891 17.1126 9.69773 16.4909 9.07468C15.9441 8.52656 15.8085 7.98181 16.0103 7.23995C16.229 6.43667 15.9131 5.9709 15.124 5.68739C14.989 5.63879 14.854 5.59761 14.719 5.56116C14.2923 5.44843 14.021 5.19057 13.9089 4.75517C13.8505 4.53455 13.7732 4.31933 13.6781 4.11187C13.4229 3.54485 12.9895 3.31399 12.3739 3.40984C12.1987 3.43121 12.0252 3.46505 11.8548 3.5111C11.3769 3.6596 10.9861 3.5435 10.6445 3.18168C10.4861 3.01868 10.3105 2.87337 10.1207 2.74831C9.70418 2.4675 9.27486 2.45738 8.84486 2.73009C8.62542 2.87157 8.42353 3.03856 8.24341 3.22758C7.93223 3.55092 7.56839 3.64003 7.13839 3.52797C6.96019 3.4814 6.77793 3.44629 6.59837 3.41524C5.94764 3.30589 5.5001 3.54485 5.24021 4.15237C5.15569 4.33463 5.08791 4.52419 5.03771 4.71872C4.93105 5.18719 4.64214 5.45383 4.18177 5.56993C3.94475 5.6251 3.71535 5.70897 3.49864 5.81969C3.0403 6.06203 2.83779 6.44207 2.88167 6.96049C2.91236 7.23619 2.96152 7.50951 3.02882 7.77863C3.09632 8.09454 3.0484 8.37805 2.82631 8.62241C2.69131 8.77227 2.5563 8.92077 2.42467 9.07603C1.87722 9.73081 1.83672 10.2911 2.43412 10.8885C2.98495 11.44 3.13615 11.9881 2.92892 12.7435C2.70818 13.5461 3.03085 14.0139 3.8186 14.296C3.99825 14.3663 4.18143 14.4271 4.3674 14.4783C4.58679 14.5309 4.58814 14.6261 4.50241 14.8111C3.8159 16.259 3.13885 17.7137 2.4591 19.1616C2.38755 19.3142 2.35042 19.4661 2.46652 19.6112C2.58263 19.7563 2.73046 19.7617 2.90057 19.7313C3.52969 19.62 4.16084 19.5207 4.79065 19.4107C4.93173 19.3857 5.0134 19.4141 5.09036 19.5511C5.39952 20.0992 5.72623 20.6379 6.04417 21.1813C6.13193 21.3312 6.22711 21.4722 6.42421 21.4675C6.63482 21.4628 6.72055 21.3089 6.79818 21.1422C7.18025 20.3204 7.56411 19.4998 7.94978 18.6803L8.67273 17.1372C9.23841 17.5422 9.6495 17.5422 10.2719 17.1487C10.309 17.2243 10.3468 17.2992 10.3826 17.3748C10.9676 18.6205 11.5511 19.8661 12.1329 21.1118C12.2133 21.2853 12.2909 21.4581 12.5123 21.4662C12.7337 21.4743 12.8242 21.3042 12.9173 21.1408C13.2271 20.6116 13.5458 20.0878 13.8482 19.5552C13.9224 19.4202 13.9987 19.3824 14.1445 19.408C14.7574 19.5153 15.3724 19.6105 15.9846 19.7178C16.1676 19.7509 16.3384 19.7773 16.47 19.6146C16.6117 19.4391 16.5307 19.271 16.4491 19.0982C15.7794 17.6705 15.1193 16.2354 14.4381 14.8178ZM7.99973 16.9037C7.49751 17.9743 6.99551 19.0446 6.49374 20.1148C6.46202 20.1823 6.42624 20.2498 6.37629 20.3483C6.0867 19.8583 5.81871 19.4033 5.54938 18.9483C5.36577 18.6378 5.30299 18.6108 4.95805 18.6722C4.43693 18.7613 3.91513 18.8444 3.34541 18.9375L5.04446 15.3052C5.10588 15.4746 5.15044 15.6096 5.20376 15.7413C5.4866 16.4419 5.93819 16.6863 6.6787 16.5513C6.96694 16.4986 7.24842 16.3981 7.54679 16.4089C7.63814 16.4036 7.72968 16.4153 7.8168 16.4433C8.10571 16.5648 8.13068 16.6249 7.99973 16.9037ZM10.2948 16.1611C10.1175 16.3287 9.93118 16.4865 9.73658 16.6336C9.55567 16.7585 9.37476 16.7687 9.20128 16.6303C9.0278 16.4919 8.85971 16.3603 8.70176 16.207C8.24206 15.7689 7.71622 15.5901 7.08169 15.7433C6.83893 15.8101 6.59025 15.8533 6.33916 15.8722C6.13665 15.8817 5.99557 15.8047 5.92199 15.6171C5.83295 15.4091 5.75565 15.1964 5.69046 14.9798C5.50753 14.3176 5.07348 13.9234 4.42343 13.7418C4.23847 13.6898 4.05891 13.6183 3.87801 13.5515C3.63635 13.463 3.54049 13.2869 3.5864 13.0357C3.62757 12.8042 3.66672 12.572 3.7214 12.3432C3.86451 11.7208 3.67617 11.2024 3.24888 10.7514C3.10443 10.5996 2.97144 10.4362 2.83981 10.2729C2.68726 10.0832 2.69131 9.88539 2.83981 9.69638C2.95621 9.54333 3.08154 9.39727 3.21513 9.25896C3.71938 8.75674 3.87126 8.16947 3.69575 7.48026C3.46624 6.5764 3.51012 6.4873 4.40655 6.23956C5.11533 6.04245 5.53588 5.59963 5.72893 4.89963C5.96519 4.04302 6.05767 3.98294 6.91361 4.20233C7.64061 4.38931 8.24544 4.23338 8.77804 3.69875C9.38556 3.09123 9.55432 3.09123 10.1605 3.69875C10.6931 4.23338 11.2966 4.39201 12.0249 4.20503C12.8815 3.98429 12.9781 4.04504 13.2096 4.89895C13.404 5.61313 13.8401 6.05325 14.5597 6.24901C15.419 6.48257 15.4844 6.60138 15.2563 7.45731C15.0673 8.16609 15.2273 8.75809 15.7437 9.27989C16.3735 9.91576 16.3762 10.0649 15.747 10.6974C15.2232 11.2267 15.0666 11.8234 15.2603 12.5416C15.4824 13.3645 15.4061 13.5096 14.5853 13.7236C13.8536 13.9153 13.4202 14.3608 13.2103 15.0737C12.9517 15.9512 12.8849 15.9816 12.002 15.7689C11.8085 15.7188 11.609 15.6961 11.4093 15.7014C10.9705 15.6589 10.6188 15.8823 10.2955 16.1638L10.2948 16.1611ZM13.9501 18.6587C13.699 18.6115 13.5343 18.6817 13.4101 18.9051C13.1401 19.3776 12.8593 19.8502 12.5629 20.3504C12.4401 20.0925 12.328 19.8616 12.2187 19.6287C11.7965 18.7346 11.3764 17.8395 10.9584 16.9435C10.8004 16.606 10.9084 16.4392 11.2959 16.4102C11.5868 16.3886 11.8616 16.4777 12.1417 16.5256C13.0807 16.693 13.4978 16.448 13.8077 15.5475L13.8921 15.3038L15.5938 18.9355C15.0241 18.843 14.4881 18.762 13.9481 18.6614L13.9501 18.6587Z" fill="#D29868"/>
<path d="M14.4381 14.8178C14.3308 14.593 14.4044 14.5303 14.5914 14.4729C14.7784 14.4155 14.9599 14.3595 15.1402 14.2913C15.9273 13.9923 16.231 13.5265 16.0083 12.7239C15.8058 11.9901 15.9468 11.4521 16.4862 10.9128C17.1092 10.2891 17.1126 9.69773 16.4909 9.07468C15.9441 8.52656 15.8085 7.98181 16.0103 7.23995C16.229 6.43667 15.9131 5.9709 15.124 5.68739C14.989 5.63879 14.854 5.59761 14.719 5.56116C14.2923 5.44843 14.021 5.19057 13.9089 4.75517C13.8505 4.53455 13.7732 4.31933 13.6781 4.11187C13.4229 3.54485 12.9895 3.31399 12.3739 3.40984C12.1987 3.43121 12.0252 3.46505 11.8548 3.5111C11.3769 3.6596 10.9861 3.5435 10.6445 3.18168C10.4861 3.01868 10.3105 2.87337 10.1207 2.74831C9.70418 2.4675 9.27486 2.45738 8.84486 2.73009C8.62542 2.87157 8.42353 3.03856 8.24341 3.22758C7.93223 3.55092 7.56839 3.64003 7.13839 3.52797C6.96019 3.4814 6.77793 3.44629 6.59837 3.41524C5.94764 3.30589 5.5001 3.54485 5.24021 4.15237C5.15569 4.33463 5.08791 4.52419 5.03771 4.71872C4.93105 5.18719 4.64214 5.45383 4.18177 5.56993C3.94475 5.6251 3.71535 5.70897 3.49864 5.81969C3.0403 6.06203 2.83779 6.44207 2.88167 6.96049C2.91236 7.23619 2.96152 7.50951 3.02882 7.77863C3.09632 8.09454 3.0484 8.37805 2.82631 8.62241C2.69131 8.77227 2.5563 8.92077 2.42467 9.07603C1.87722 9.73081 1.83672 10.2911 2.43412 10.8885C2.98495 11.44 3.13615 11.9881 2.92892 12.7435C2.70818 13.5461 3.03085 14.0139 3.8186 14.296C3.99825 14.3663 4.18143 14.4271 4.3674 14.4783C4.58679 14.5309 4.58814 14.6261 4.50241 14.8111C3.8159 16.259 3.13885 17.7137 2.4591 19.1616C2.38755 19.3142 2.35042 19.4661 2.46652 19.6112C2.58263 19.7563 2.73046 19.7617 2.90057 19.7313C3.52969 19.62 4.16084 19.5207 4.79065 19.4107C4.93173 19.3857 5.0134 19.4141 5.09036 19.5511C5.39952 20.0992 5.72623 20.6379 6.04417 21.1813C6.13193 21.3312 6.22711 21.4722 6.42421 21.4675C6.63482 21.4628 6.72055 21.3089 6.79818 21.1422C7.18025 20.3204 7.56411 19.4998 7.94978 18.6803L8.67273 17.1372C9.23841 17.5422 9.6495 17.5422 10.2719 17.1487C10.309 17.2243 10.3468 17.2992 10.3826 17.3748C10.9676 18.6205 11.5511 19.8661 12.1329 21.1118C12.2133 21.2853 12.2909 21.4581 12.5123 21.4662C12.7337 21.4743 12.8242 21.3042 12.9173 21.1408C13.2271 20.6116 13.5458 20.0878 13.8482 19.5552C13.9224 19.4202 13.9987 19.3824 14.1445 19.408C14.7574 19.5153 15.3724 19.6105 15.9846 19.7178C16.1676 19.7509 16.3384 19.7773 16.47 19.6146C16.6117 19.4391 16.5307 19.271 16.4491 19.0982C15.7794 17.6705 15.1193 16.2354 14.4381 14.8178ZM7.99973 16.9037C7.49751 17.9743 6.99551 19.0446 6.49374 20.1148C6.46202 20.1823 6.42624 20.2498 6.37629 20.3483C6.0867 19.8583 5.81871 19.4033 5.54938 18.9483C5.36577 18.6378 5.30299 18.6108 4.95805 18.6722C4.43693 18.7613 3.91513 18.8444 3.34541 18.9375L5.04446 15.3052C5.10588 15.4746 5.15044 15.6096 5.20376 15.7413C5.4866 16.4419 5.93819 16.6863 6.6787 16.5513C6.96694 16.4986 7.24842 16.3981 7.54679 16.4089C7.63814 16.4036 7.72968 16.4153 7.8168 16.4433C8.10571 16.5648 8.13068 16.6249 7.99973 16.9037ZM10.2948 16.1611C10.1175 16.3287 9.93118 16.4865 9.73658 16.6336C9.55567 16.7585 9.37476 16.7687 9.20128 16.6303C9.0278 16.4919 8.85971 16.3603 8.70176 16.207C8.24206 15.7689 7.71622 15.5901 7.08169 15.7433C6.83893 15.8101 6.59025 15.8533 6.33916 15.8722C6.13665 15.8817 5.99557 15.8047 5.92199 15.6171C5.83295 15.4091 5.75565 15.1964 5.69046 14.9798C5.50753 14.3176 5.07348 13.9234 4.42343 13.7418C4.23847 13.6898 4.05891 13.6183 3.87801 13.5515C3.63635 13.463 3.54049 13.2869 3.5864 13.0357C3.62757 12.8042 3.66672 12.572 3.7214 12.3432C3.86451 11.7208 3.67617 11.2024 3.24888 10.7514C3.10443 10.5996 2.97144 10.4362 2.83981 10.2729C2.68726 10.0832 2.69131 9.88539 2.83981 9.69638C2.95621 9.54333 3.08154 9.39727 3.21513 9.25896C3.71938 8.75674 3.87126 8.16947 3.69575 7.48026C3.46624 6.5764 3.51012 6.4873 4.40655 6.23956C5.11533 6.04245 5.53588 5.59963 5.72893 4.89963C5.96519 4.04302 6.05767 3.98294 6.91361 4.20233C7.64061 4.38931 8.24544 4.23338 8.77804 3.69875C9.38556 3.09123 9.55432 3.09123 10.1605 3.69875C10.6931 4.23338 11.2966 4.39201 12.0249 4.20503C12.8815 3.98429 12.9781 4.04504 13.2096 4.89895C13.404 5.61313 13.8401 6.05325 14.5597 6.24901C15.419 6.48257 15.4844 6.60138 15.2563 7.45731C15.0673 8.16609 15.2273 8.75809 15.7437 9.27989C16.3735 9.91576 16.3762 10.0649 15.747 10.6974C15.2232 11.2267 15.0666 11.8234 15.2603 12.5416C15.4824 13.3645 15.4061 13.5096 14.5853 13.7236C13.8536 13.9153 13.4202 14.3608 13.2103 15.0737C12.9517 15.9512 12.8849 15.9816 12.002 15.7689C11.8085 15.7188 11.609 15.6961 11.4093 15.7014C10.9705 15.6589 10.6188 15.8823 10.2955 16.1638L10.2948 16.1611ZM13.9501 18.6587C13.699 18.6115 13.5343 18.6817 13.4101 18.9051C13.1401 19.3776 12.8593 19.8502 12.5629 20.3504C12.4401 20.0925 12.328 19.8616 12.2187 19.6287C11.7965 18.7346 11.3764 17.8395 10.9584 16.9435C10.8004 16.606 10.9084 16.4392 11.2959 16.4102C11.5868 16.3886 11.8616 16.4777 12.1417 16.5256C13.0807 16.693 13.4978 16.448 13.8077 15.5475L13.8921 15.3038L15.5938 18.9355C15.0241 18.843 14.4881 18.762 13.9481 18.6614L13.9501 18.6587Z" stroke="#D29868" stroke-width="0.2" mask="url(#path-5-outside-1_581_2886)"/>
<path d="M4.61893 10.1129L4.61893 10.1129L14.3178 9.84005C14.3178 9.84004 14.3178 9.84003 14.3178 9.84003C14.2769 7.25669 12.046 5.09964 9.45881 5.14058C6.68935 5.18285 4.58211 7.35206 4.61893 10.1129ZM9.46616 5.9453L9.46616 5.9453C11.6585 5.92397 13.4877 7.72483 13.5118 9.92981L13.5118 9.92983C13.5371 12.1787 11.7405 14.0215 9.50918 14.0388C7.29186 14.0555 5.44767 12.26 5.425 10.0604C5.40166 7.77679 7.17836 5.96731 9.46616 5.9453Z" fill="#D29868" stroke="#D29868" stroke-width="0.1"/>
</svg>
