<svg width="24" height="24" viewBox="0 0 24 24" fill="none" xmlns="http://www.w3.org/2000/svg">
<path d="M16.5 7C16.7761 7 17 7.22386 17 7.5C17 7.77614 16.7761 8 16.5 8H11.5C11.2239 8 11 7.77614 11 7.5C11 7.22386 11.2239 7 11.5 7H16.5Z" fill="#D29868"/>
<path d="M16.5 10C16.7761 10 17 10.2239 17 10.5C17 10.7761 16.7761 11 16.5 11H11.5C11.2239 11 11 10.7761 11 10.5C11 10.2239 11.2239 10 11.5 10H16.5Z" fill="#D29868"/>
<path d="M17 13.5C17 13.2239 16.7761 13 16.5 13H11.5C11.2239 13 11 13.2239 11 13.5C11 13.7761 11.2239 14 11.5 14H16.5C16.7761 14 17 13.7761 17 13.5Z" fill="#D29868"/>
<path d="M16.5 16C16.7761 16 17 16.2239 17 16.5C17 16.7761 16.7761 17 16.5 17H11.5C11.2239 17 11 16.7761 11 16.5C11 16.2239 11.2239 16 11.5 16H16.5Z" fill="#D29868"/>
<path d="M20 6C20 4.89543 19.1046 4 18 4H6C4.89543 4 4 4.89543 4 6V18C4 19.1046 4.89543 20 6 20H18C19.1046 20 20 19.1046 20 18V6ZM8 5V19H6C5.44772 19 5 18.5523 5 18V6C5 5.44772 5.44772 5 6 5H8ZM9 5H18C18.5523 5 19 5.44772 19 6V18C19 18.5523 18.5523 19 18 19H9V5Z" fill="#D29868"/>
</svg>
