<svg width="24" height="24" viewBox="0 0 24 24" fill="none" xmlns="http://www.w3.org/2000/svg">
<mask id="path-1-outside-1_581_2878" maskUnits="userSpaceOnUse" x="1" y="1" width="22" height="22" fill="black">
<rect fill="white" x="1" y="1" width="22" height="22"/>
<path d="M20.995 7.6237C18.6518 2.78778 12.8371 0.670206 7.93644 2.86781C7.84072 2.91053 7.77421 2.93649 7.67145 2.85159C7.38572 2.61117 7.02987 2.46961 6.65705 2.44808C6.28422 2.42654 5.91444 2.52617 5.60291 2.73208C4.96315 3.15225 4.71384 3.85252 4.9426 4.64634C4.98965 4.80856 4.96531 4.90427 4.84904 5.02865C2.33812 7.71996 1.45825 10.8785 2.32352 14.4485C3.56735 19.5743 8.71141 22.8188 13.8738 21.8195C15.3823 21.5311 16.8041 20.8994 18.0291 19.9733C19.2541 19.0472 20.2495 17.8515 20.938 16.4788C21.6266 15.1062 21.9899 13.5935 21.9998 12.0579C22.0097 10.5223 21.6659 9.00508 20.995 7.6237ZM6.00959 3.14846C6.24069 3.02728 6.50535 2.98581 6.76245 3.0305C7.01955 3.07519 7.25469 3.20353 7.43134 3.39558C7.71147 3.69786 7.73148 4.05746 7.65577 4.43328C7.60637 4.64926 7.53271 4.85896 7.43621 5.05839C7.30144 5.34513 7.15031 5.6239 6.98356 5.89331C6.85323 6.1096 6.71316 6.3259 6.56174 6.56762C6.14641 5.86465 5.66997 5.23035 5.4715 4.45383C5.32602 3.88172 5.52882 3.40153 6.00959 3.14846ZM4.70789 6.02417C4.88311 5.83761 5.04643 5.64023 5.23409 5.42502C5.54883 6.04958 5.93225 6.59628 6.26593 7.1711C6.44601 7.48203 6.67585 7.48311 6.85756 7.1711C7.2253 6.54545 7.65902 5.95765 7.95537 5.29091C8.21441 4.70744 8.38314 4.11154 8.14357 3.47561C8.09544 3.348 8.2155 3.36314 8.26525 3.34151C8.94802 3.03874 9.66657 2.82414 10.4036 2.70288C11.8371 2.45624 13.3084 2.54621 14.7013 2.96569C14.7818 2.99002 14.8494 3.00733 14.8754 3.1052C15.0328 3.68434 15.1696 4.26619 15.1609 4.87291C15.1485 5.7035 14.8175 6.15827 14.0253 6.41188C13.7186 6.5103 13.4023 6.58168 13.0994 6.69037C12.5932 6.87152 12.431 7.23707 12.5938 7.74754C12.7138 8.12606 12.9512 8.40941 13.2568 8.64193C13.7067 8.98369 14.167 9.31355 14.6207 9.65097C14.7608 9.74515 14.8845 9.8617 14.9868 9.99597C15.0771 10.1268 15.0528 10.2382 14.9235 10.3242C14.8 10.4074 14.6568 10.4567 14.5082 10.467C13.9036 10.5102 13.2984 10.5497 12.6938 10.6C12.5895 10.6086 12.5711 10.5459 12.5316 10.4848C12.3927 10.2629 12.2054 10.0751 11.9839 9.93556C11.7623 9.796 11.5121 9.70821 11.2519 9.67875C10.9917 9.64928 10.7282 9.67888 10.4811 9.76536C10.2339 9.85184 10.0094 9.99295 9.82436 10.1782C9.28952 10.7098 9.26788 11.3419 9.47555 12.0168C9.62373 12.4959 9.86546 12.9306 10.1245 13.3562C10.3408 13.7131 10.5604 14.0678 10.7789 14.4225C10.946 14.6929 11.1704 14.6929 11.3381 14.4225C11.5057 14.1522 11.6701 13.8845 11.8383 13.6168C11.8691 13.5682 11.8891 13.4735 11.9746 13.5752C12.3191 13.9824 12.6554 14.3955 12.7858 14.9309C12.8663 15.2683 12.769 15.504 12.4813 15.6944C11.8951 16.0821 11.2726 16.0572 10.7232 15.616C10.3463 15.3075 10.0372 14.9246 9.81517 14.4912C9.50692 13.9088 9.1992 13.3264 8.87905 12.7511C8.67488 12.3705 8.41738 12.0211 8.11437 11.7134C7.88994 11.4917 7.6363 11.3181 7.32318 11.2521C6.5758 11.0915 6.16317 10.5935 5.93604 9.90134C5.79818 9.46411 5.71819 9.01071 5.69809 8.55271C5.6844 8.29045 5.62739 8.03227 5.52936 7.78863C5.31639 7.24295 5.03898 6.72466 4.70303 6.24479C4.6457 6.16368 4.63002 6.1096 4.70789 6.02417ZM12.1795 11.469C12.1628 11.6023 12.134 11.7339 12.0935 11.8621C11.8686 12.5613 11.4446 13.1539 11.0612 13.7845C10.7059 13.2053 10.3349 12.6608 10.0877 12.047C10.001 11.8425 9.94712 11.6255 9.9282 11.4041C9.89575 10.9542 10.0834 10.6157 10.4652 10.3972C10.8795 10.1598 11.3056 10.1712 11.709 10.4307C12.0806 10.6719 12.2385 11.0266 12.1795 11.469ZM8.60054 20.7855C7.43812 20.3326 6.37674 19.6543 5.47745 18.7896C6.10206 18.6334 6.68991 18.4057 7.32697 18.5193C7.62927 18.5733 7.78015 18.7896 7.83207 19.0795C7.85771 19.2039 7.86807 19.331 7.8629 19.458C7.84072 19.7722 7.96565 19.9988 8.25119 20.1199C8.53673 20.241 8.60919 20.4795 8.60054 20.7855ZM17.4258 19.5418C17.4799 19.6273 17.4799 19.67 17.3879 19.7327C16.1528 20.5958 14.7277 21.1482 13.2335 21.3431C11.9337 21.5132 10.6128 21.4123 9.35387 21.0467C9.21381 21.0073 9.16189 20.9548 9.16784 20.8023C9.18677 20.287 9.03156 19.8571 8.52267 19.6294C8.43614 19.5905 8.43235 19.5272 8.4329 19.4494C8.43608 19.247 8.41244 19.0452 8.36259 18.8491C8.19386 18.2002 7.62332 17.8579 6.85702 17.9217C6.29567 17.9688 5.76082 18.1305 5.22111 18.2705C5.07293 18.3089 4.98099 18.2851 4.87662 18.1624C3.63658 16.7023 2.87568 15.0309 2.65179 13.1247C2.38067 10.8215 2.88307 8.70034 4.15898 6.76121C4.19143 6.71254 4.22604 6.6655 4.27526 6.5952C4.73223 7.33873 5.14918 8.05901 5.17514 8.95233C5.19564 9.54797 5.35667 10.1303 5.64509 10.6519C5.94632 11.2073 6.39031 11.5982 7.00519 11.7431C7.4454 11.8464 7.74879 12.0989 8.0035 12.4461C8.33555 12.8971 8.59243 13.393 8.8558 13.885C9.18028 14.495 9.45608 15.1369 9.93739 15.6528C10.3311 16.0751 10.7675 16.4325 11.3608 16.5098C11.6723 16.5576 11.9908 16.5291 12.289 16.4269C12.5871 16.3248 12.8561 16.1519 13.0729 15.9231C13.4115 15.5798 13.4428 15.1461 13.3136 14.6967C13.1394 14.0911 12.7685 13.6049 12.3526 13.1507C12.2444 13.0344 12.2244 12.9566 12.3039 12.8106C12.5678 12.3288 12.7609 11.8205 12.7555 11.2586C12.7555 11.138 12.8301 11.1543 12.9015 11.1505C13.4596 11.1115 14.0177 11.0748 14.578 11.0331C14.8198 11.0121 15.0515 10.9262 15.2485 10.7844C15.6228 10.5237 15.7109 10.1149 15.4822 9.72127C15.3755 9.5486 15.2345 9.3997 15.0679 9.2838C14.6196 8.94962 14.1664 8.62301 13.7192 8.2872C13.4872 8.11308 13.266 7.92706 13.1567 7.6383C13.0475 7.34954 13.0745 7.27925 13.3568 7.1884C13.6705 7.08782 13.9928 7.01536 14.3038 6.90667C15.2269 6.58222 15.6893 5.94251 15.7234 4.9643C15.7418 4.44842 15.6628 3.9439 15.546 3.44371C15.533 3.38693 15.5249 3.32853 15.5098 3.24688C16.2112 3.52202 16.8747 3.88545 17.4842 4.32838C19.4089 5.73432 20.6543 7.59558 21.2016 9.92081C21.2368 10.0706 21.2141 10.1025 21.0637 10.103C20.6387 10.103 20.2152 10.1376 19.8042 10.2577C19.0741 10.4707 18.695 10.958 18.6415 11.7512C18.635 11.8443 18.6296 11.9064 18.5204 11.9454C17.5469 12.2925 17.1213 13.0809 17.4101 14.0667C17.508 14.4004 17.5659 14.6286 17.2349 14.8876C16.9239 15.1315 16.9483 15.5419 17.0413 15.9053C17.1397 16.2887 17.2722 16.6623 17.3896 17.0409C17.5599 17.5903 17.5859 18.1332 17.362 18.6804C17.3006 18.8181 17.2743 18.9688 17.2855 19.1191C17.2966 19.2695 17.3448 19.4147 17.4258 19.5418ZM19.8945 12.8181C20.1795 13.1269 20.199 13.4914 20.1168 13.8764C20.0712 14.0728 20.0051 14.2638 19.9194 14.4463C19.7931 14.7208 19.6499 14.9872 19.4906 15.2439C19.3451 15.4851 19.1942 15.7231 19.0276 15.9918C18.6096 15.284 18.1288 14.6437 17.9314 13.8596C17.7914 13.3043 17.9985 12.8257 18.4722 12.5732C18.7032 12.4518 18.9678 12.41 19.225 12.4543C19.4821 12.4986 19.7175 12.6265 19.8945 12.8181ZM18.1099 19.1703C18.0558 19.2157 18.0061 19.3125 17.932 19.2725C17.8579 19.2325 17.8541 19.1346 17.8628 19.0524C17.8677 18.9857 17.8819 18.92 17.9049 18.8572C18.171 18.1937 18.1342 17.5302 17.9282 16.8602C17.806 16.4623 17.6389 16.0778 17.5686 15.6641C17.5372 15.4792 17.5723 15.3175 17.7162 15.1861C17.7881 15.1201 17.8308 15.1028 17.8936 15.2093C18.164 15.6674 18.443 16.1183 18.7167 16.5742C18.9238 16.9192 19.1298 16.9181 19.3386 16.5666C19.7296 15.908 20.186 15.2872 20.4807 14.5734C20.6527 14.1581 20.7593 13.7326 20.7073 13.2756C20.6333 12.6267 20.0881 12.0503 19.3932 11.9162C19.231 11.8848 19.192 11.8302 19.2142 11.6696C19.2775 11.2197 19.5138 10.9363 19.9529 10.8114C20.3661 10.6935 20.7879 10.6768 21.213 10.667C21.3211 10.667 21.3449 10.7081 21.3563 10.8076C21.404 11.2025 21.4309 11.5996 21.4369 11.9973C21.3747 14.8741 20.2817 17.2723 18.111 19.1703H18.1099Z"/>
</mask>
<path d="M20.995 7.6237C18.6518 2.78778 12.8371 0.670206 7.93644 2.86781C7.84072 2.91053 7.77421 2.93649 7.67145 2.85159C7.38572 2.61117 7.02987 2.46961 6.65705 2.44808C6.28422 2.42654 5.91444 2.52617 5.60291 2.73208C4.96315 3.15225 4.71384 3.85252 4.9426 4.64634C4.98965 4.80856 4.96531 4.90427 4.84904 5.02865C2.33812 7.71996 1.45825 10.8785 2.32352 14.4485C3.56735 19.5743 8.71141 22.8188 13.8738 21.8195C15.3823 21.5311 16.8041 20.8994 18.0291 19.9733C19.2541 19.0472 20.2495 17.8515 20.938 16.4788C21.6266 15.1062 21.9899 13.5935 21.9998 12.0579C22.0097 10.5223 21.6659 9.00508 20.995 7.6237ZM6.00959 3.14846C6.24069 3.02728 6.50535 2.98581 6.76245 3.0305C7.01955 3.07519 7.25469 3.20353 7.43134 3.39558C7.71147 3.69786 7.73148 4.05746 7.65577 4.43328C7.60637 4.64926 7.53271 4.85896 7.43621 5.05839C7.30144 5.34513 7.15031 5.6239 6.98356 5.89331C6.85323 6.1096 6.71316 6.3259 6.56174 6.56762C6.14641 5.86465 5.66997 5.23035 5.4715 4.45383C5.32602 3.88172 5.52882 3.40153 6.00959 3.14846ZM4.70789 6.02417C4.88311 5.83761 5.04643 5.64023 5.23409 5.42502C5.54883 6.04958 5.93225 6.59628 6.26593 7.1711C6.44601 7.48203 6.67585 7.48311 6.85756 7.1711C7.2253 6.54545 7.65902 5.95765 7.95537 5.29091C8.21441 4.70744 8.38314 4.11154 8.14357 3.47561C8.09544 3.348 8.2155 3.36314 8.26525 3.34151C8.94802 3.03874 9.66657 2.82414 10.4036 2.70288C11.8371 2.45624 13.3084 2.54621 14.7013 2.96569C14.7818 2.99002 14.8494 3.00733 14.8754 3.1052C15.0328 3.68434 15.1696 4.26619 15.1609 4.87291C15.1485 5.7035 14.8175 6.15827 14.0253 6.41188C13.7186 6.5103 13.4023 6.58168 13.0994 6.69037C12.5932 6.87152 12.431 7.23707 12.5938 7.74754C12.7138 8.12606 12.9512 8.40941 13.2568 8.64193C13.7067 8.98369 14.167 9.31355 14.6207 9.65097C14.7608 9.74515 14.8845 9.8617 14.9868 9.99597C15.0771 10.1268 15.0528 10.2382 14.9235 10.3242C14.8 10.4074 14.6568 10.4567 14.5082 10.467C13.9036 10.5102 13.2984 10.5497 12.6938 10.6C12.5895 10.6086 12.5711 10.5459 12.5316 10.4848C12.3927 10.2629 12.2054 10.0751 11.9839 9.93556C11.7623 9.796 11.5121 9.70821 11.2519 9.67875C10.9917 9.64928 10.7282 9.67888 10.4811 9.76536C10.2339 9.85184 10.0094 9.99295 9.82436 10.1782C9.28952 10.7098 9.26788 11.3419 9.47555 12.0168C9.62373 12.4959 9.86546 12.9306 10.1245 13.3562C10.3408 13.7131 10.5604 14.0678 10.7789 14.4225C10.946 14.6929 11.1704 14.6929 11.3381 14.4225C11.5057 14.1522 11.6701 13.8845 11.8383 13.6168C11.8691 13.5682 11.8891 13.4735 11.9746 13.5752C12.3191 13.9824 12.6554 14.3955 12.7858 14.9309C12.8663 15.2683 12.769 15.504 12.4813 15.6944C11.8951 16.0821 11.2726 16.0572 10.7232 15.616C10.3463 15.3075 10.0372 14.9246 9.81517 14.4912C9.50692 13.9088 9.1992 13.3264 8.87905 12.7511C8.67488 12.3705 8.41738 12.0211 8.11437 11.7134C7.88994 11.4917 7.6363 11.3181 7.32318 11.2521C6.5758 11.0915 6.16317 10.5935 5.93604 9.90134C5.79818 9.46411 5.71819 9.01071 5.69809 8.55271C5.6844 8.29045 5.62739 8.03227 5.52936 7.78863C5.31639 7.24295 5.03898 6.72466 4.70303 6.24479C4.6457 6.16368 4.63002 6.1096 4.70789 6.02417ZM12.1795 11.469C12.1628 11.6023 12.134 11.7339 12.0935 11.8621C11.8686 12.5613 11.4446 13.1539 11.0612 13.7845C10.7059 13.2053 10.3349 12.6608 10.0877 12.047C10.001 11.8425 9.94712 11.6255 9.9282 11.4041C9.89575 10.9542 10.0834 10.6157 10.4652 10.3972C10.8795 10.1598 11.3056 10.1712 11.709 10.4307C12.0806 10.6719 12.2385 11.0266 12.1795 11.469ZM8.60054 20.7855C7.43812 20.3326 6.37674 19.6543 5.47745 18.7896C6.10206 18.6334 6.68991 18.4057 7.32697 18.5193C7.62927 18.5733 7.78015 18.7896 7.83207 19.0795C7.85771 19.2039 7.86807 19.331 7.8629 19.458C7.84072 19.7722 7.96565 19.9988 8.25119 20.1199C8.53673 20.241 8.60919 20.4795 8.60054 20.7855ZM17.4258 19.5418C17.4799 19.6273 17.4799 19.67 17.3879 19.7327C16.1528 20.5958 14.7277 21.1482 13.2335 21.3431C11.9337 21.5132 10.6128 21.4123 9.35387 21.0467C9.21381 21.0073 9.16189 20.9548 9.16784 20.8023C9.18677 20.287 9.03156 19.8571 8.52267 19.6294C8.43614 19.5905 8.43235 19.5272 8.4329 19.4494C8.43608 19.247 8.41244 19.0452 8.36259 18.8491C8.19386 18.2002 7.62332 17.8579 6.85702 17.9217C6.29567 17.9688 5.76082 18.1305 5.22111 18.2705C5.07293 18.3089 4.98099 18.2851 4.87662 18.1624C3.63658 16.7023 2.87568 15.0309 2.65179 13.1247C2.38067 10.8215 2.88307 8.70034 4.15898 6.76121C4.19143 6.71254 4.22604 6.6655 4.27526 6.5952C4.73223 7.33873 5.14918 8.05901 5.17514 8.95233C5.19564 9.54797 5.35667 10.1303 5.64509 10.6519C5.94632 11.2073 6.39031 11.5982 7.00519 11.7431C7.4454 11.8464 7.74879 12.0989 8.0035 12.4461C8.33555 12.8971 8.59243 13.393 8.8558 13.885C9.18028 14.495 9.45608 15.1369 9.93739 15.6528C10.3311 16.0751 10.7675 16.4325 11.3608 16.5098C11.6723 16.5576 11.9908 16.5291 12.289 16.4269C12.5871 16.3248 12.8561 16.1519 13.0729 15.9231C13.4115 15.5798 13.4428 15.1461 13.3136 14.6967C13.1394 14.0911 12.7685 13.6049 12.3526 13.1507C12.2444 13.0344 12.2244 12.9566 12.3039 12.8106C12.5678 12.3288 12.7609 11.8205 12.7555 11.2586C12.7555 11.138 12.8301 11.1543 12.9015 11.1505C13.4596 11.1115 14.0177 11.0748 14.578 11.0331C14.8198 11.0121 15.0515 10.9262 15.2485 10.7844C15.6228 10.5237 15.7109 10.1149 15.4822 9.72127C15.3755 9.5486 15.2345 9.3997 15.0679 9.2838C14.6196 8.94962 14.1664 8.62301 13.7192 8.2872C13.4872 8.11308 13.266 7.92706 13.1567 7.6383C13.0475 7.34954 13.0745 7.27925 13.3568 7.1884C13.6705 7.08782 13.9928 7.01536 14.3038 6.90667C15.2269 6.58222 15.6893 5.94251 15.7234 4.9643C15.7418 4.44842 15.6628 3.9439 15.546 3.44371C15.533 3.38693 15.5249 3.32853 15.5098 3.24688C16.2112 3.52202 16.8747 3.88545 17.4842 4.32838C19.4089 5.73432 20.6543 7.59558 21.2016 9.92081C21.2368 10.0706 21.2141 10.1025 21.0637 10.103C20.6387 10.103 20.2152 10.1376 19.8042 10.2577C19.0741 10.4707 18.695 10.958 18.6415 11.7512C18.635 11.8443 18.6296 11.9064 18.5204 11.9454C17.5469 12.2925 17.1213 13.0809 17.4101 14.0667C17.508 14.4004 17.5659 14.6286 17.2349 14.8876C16.9239 15.1315 16.9483 15.5419 17.0413 15.9053C17.1397 16.2887 17.2722 16.6623 17.3896 17.0409C17.5599 17.5903 17.5859 18.1332 17.362 18.6804C17.3006 18.8181 17.2743 18.9688 17.2855 19.1191C17.2966 19.2695 17.3448 19.4147 17.4258 19.5418ZM19.8945 12.8181C20.1795 13.1269 20.199 13.4914 20.1168 13.8764C20.0712 14.0728 20.0051 14.2638 19.9194 14.4463C19.7931 14.7208 19.6499 14.9872 19.4906 15.2439C19.3451 15.4851 19.1942 15.7231 19.0276 15.9918C18.6096 15.284 18.1288 14.6437 17.9314 13.8596C17.7914 13.3043 17.9985 12.8257 18.4722 12.5732C18.7032 12.4518 18.9678 12.41 19.225 12.4543C19.4821 12.4986 19.7175 12.6265 19.8945 12.8181ZM18.1099 19.1703C18.0558 19.2157 18.0061 19.3125 17.932 19.2725C17.8579 19.2325 17.8541 19.1346 17.8628 19.0524C17.8677 18.9857 17.8819 18.92 17.9049 18.8572C18.171 18.1937 18.1342 17.5302 17.9282 16.8602C17.806 16.4623 17.6389 16.0778 17.5686 15.6641C17.5372 15.4792 17.5723 15.3175 17.7162 15.1861C17.7881 15.1201 17.8308 15.1028 17.8936 15.2093C18.164 15.6674 18.443 16.1183 18.7167 16.5742C18.9238 16.9192 19.1298 16.9181 19.3386 16.5666C19.7296 15.908 20.186 15.2872 20.4807 14.5734C20.6527 14.1581 20.7593 13.7326 20.7073 13.2756C20.6333 12.6267 20.0881 12.0503 19.3932 11.9162C19.231 11.8848 19.192 11.8302 19.2142 11.6696C19.2775 11.2197 19.5138 10.9363 19.9529 10.8114C20.3661 10.6935 20.7879 10.6768 21.213 10.667C21.3211 10.667 21.3449 10.7081 21.3563 10.8076C21.404 11.2025 21.4309 11.5996 21.4369 11.9973C21.3747 14.8741 20.2817 17.2723 18.111 19.1703H18.1099Z" fill="#D29868"/>
<path d="M20.995 7.6237C18.6518 2.78778 12.8371 0.670206 7.93644 2.86781C7.84072 2.91053 7.77421 2.93649 7.67145 2.85159C7.38572 2.61117 7.02987 2.46961 6.65705 2.44808C6.28422 2.42654 5.91444 2.52617 5.60291 2.73208C4.96315 3.15225 4.71384 3.85252 4.9426 4.64634C4.98965 4.80856 4.96531 4.90427 4.84904 5.02865C2.33812 7.71996 1.45825 10.8785 2.32352 14.4485C3.56735 19.5743 8.71141 22.8188 13.8738 21.8195C15.3823 21.5311 16.8041 20.8994 18.0291 19.9733C19.2541 19.0472 20.2495 17.8515 20.938 16.4788C21.6266 15.1062 21.9899 13.5935 21.9998 12.0579C22.0097 10.5223 21.6659 9.00508 20.995 7.6237ZM6.00959 3.14846C6.24069 3.02728 6.50535 2.98581 6.76245 3.0305C7.01955 3.07519 7.25469 3.20353 7.43134 3.39558C7.71147 3.69786 7.73148 4.05746 7.65577 4.43328C7.60637 4.64926 7.53271 4.85896 7.43621 5.05839C7.30144 5.34513 7.15031 5.6239 6.98356 5.89331C6.85323 6.1096 6.71316 6.3259 6.56174 6.56762C6.14641 5.86465 5.66997 5.23035 5.4715 4.45383C5.32602 3.88172 5.52882 3.40153 6.00959 3.14846ZM4.70789 6.02417C4.88311 5.83761 5.04643 5.64023 5.23409 5.42502C5.54883 6.04958 5.93225 6.59628 6.26593 7.1711C6.44601 7.48203 6.67585 7.48311 6.85756 7.1711C7.2253 6.54545 7.65902 5.95765 7.95537 5.29091C8.21441 4.70744 8.38314 4.11154 8.14357 3.47561C8.09544 3.348 8.2155 3.36314 8.26525 3.34151C8.94802 3.03874 9.66657 2.82414 10.4036 2.70288C11.8371 2.45624 13.3084 2.54621 14.7013 2.96569C14.7818 2.99002 14.8494 3.00733 14.8754 3.1052C15.0328 3.68434 15.1696 4.26619 15.1609 4.87291C15.1485 5.7035 14.8175 6.15827 14.0253 6.41188C13.7186 6.5103 13.4023 6.58168 13.0994 6.69037C12.5932 6.87152 12.431 7.23707 12.5938 7.74754C12.7138 8.12606 12.9512 8.40941 13.2568 8.64193C13.7067 8.98369 14.167 9.31355 14.6207 9.65097C14.7608 9.74515 14.8845 9.8617 14.9868 9.99597C15.0771 10.1268 15.0528 10.2382 14.9235 10.3242C14.8 10.4074 14.6568 10.4567 14.5082 10.467C13.9036 10.5102 13.2984 10.5497 12.6938 10.6C12.5895 10.6086 12.5711 10.5459 12.5316 10.4848C12.3927 10.2629 12.2054 10.0751 11.9839 9.93556C11.7623 9.796 11.5121 9.70821 11.2519 9.67875C10.9917 9.64928 10.7282 9.67888 10.4811 9.76536C10.2339 9.85184 10.0094 9.99295 9.82436 10.1782C9.28952 10.7098 9.26788 11.3419 9.47555 12.0168C9.62373 12.4959 9.86546 12.9306 10.1245 13.3562C10.3408 13.7131 10.5604 14.0678 10.7789 14.4225C10.946 14.6929 11.1704 14.6929 11.3381 14.4225C11.5057 14.1522 11.6701 13.8845 11.8383 13.6168C11.8691 13.5682 11.8891 13.4735 11.9746 13.5752C12.3191 13.9824 12.6554 14.3955 12.7858 14.9309C12.8663 15.2683 12.769 15.504 12.4813 15.6944C11.8951 16.0821 11.2726 16.0572 10.7232 15.616C10.3463 15.3075 10.0372 14.9246 9.81517 14.4912C9.50692 13.9088 9.1992 13.3264 8.87905 12.7511C8.67488 12.3705 8.41738 12.0211 8.11437 11.7134C7.88994 11.4917 7.6363 11.3181 7.32318 11.2521C6.5758 11.0915 6.16317 10.5935 5.93604 9.90134C5.79818 9.46411 5.71819 9.01071 5.69809 8.55271C5.6844 8.29045 5.62739 8.03227 5.52936 7.78863C5.31639 7.24295 5.03898 6.72466 4.70303 6.24479C4.6457 6.16368 4.63002 6.1096 4.70789 6.02417ZM12.1795 11.469C12.1628 11.6023 12.134 11.7339 12.0935 11.8621C11.8686 12.5613 11.4446 13.1539 11.0612 13.7845C10.7059 13.2053 10.3349 12.6608 10.0877 12.047C10.001 11.8425 9.94712 11.6255 9.9282 11.4041C9.89575 10.9542 10.0834 10.6157 10.4652 10.3972C10.8795 10.1598 11.3056 10.1712 11.709 10.4307C12.0806 10.6719 12.2385 11.0266 12.1795 11.469ZM8.60054 20.7855C7.43812 20.3326 6.37674 19.6543 5.47745 18.7896C6.10206 18.6334 6.68991 18.4057 7.32697 18.5193C7.62927 18.5733 7.78015 18.7896 7.83207 19.0795C7.85771 19.2039 7.86807 19.331 7.8629 19.458C7.84072 19.7722 7.96565 19.9988 8.25119 20.1199C8.53673 20.241 8.60919 20.4795 8.60054 20.7855ZM17.4258 19.5418C17.4799 19.6273 17.4799 19.67 17.3879 19.7327C16.1528 20.5958 14.7277 21.1482 13.2335 21.3431C11.9337 21.5132 10.6128 21.4123 9.35387 21.0467C9.21381 21.0073 9.16189 20.9548 9.16784 20.8023C9.18677 20.287 9.03156 19.8571 8.52267 19.6294C8.43614 19.5905 8.43235 19.5272 8.4329 19.4494C8.43608 19.247 8.41244 19.0452 8.36259 18.8491C8.19386 18.2002 7.62332 17.8579 6.85702 17.9217C6.29567 17.9688 5.76082 18.1305 5.22111 18.2705C5.07293 18.3089 4.98099 18.2851 4.87662 18.1624C3.63658 16.7023 2.87568 15.0309 2.65179 13.1247C2.38067 10.8215 2.88307 8.70034 4.15898 6.76121C4.19143 6.71254 4.22604 6.6655 4.27526 6.5952C4.73223 7.33873 5.14918 8.05901 5.17514 8.95233C5.19564 9.54797 5.35667 10.1303 5.64509 10.6519C5.94632 11.2073 6.39031 11.5982 7.00519 11.7431C7.4454 11.8464 7.74879 12.0989 8.0035 12.4461C8.33555 12.8971 8.59243 13.393 8.8558 13.885C9.18028 14.495 9.45608 15.1369 9.93739 15.6528C10.3311 16.0751 10.7675 16.4325 11.3608 16.5098C11.6723 16.5576 11.9908 16.5291 12.289 16.4269C12.5871 16.3248 12.8561 16.1519 13.0729 15.9231C13.4115 15.5798 13.4428 15.1461 13.3136 14.6967C13.1394 14.0911 12.7685 13.6049 12.3526 13.1507C12.2444 13.0344 12.2244 12.9566 12.3039 12.8106C12.5678 12.3288 12.7609 11.8205 12.7555 11.2586C12.7555 11.138 12.8301 11.1543 12.9015 11.1505C13.4596 11.1115 14.0177 11.0748 14.578 11.0331C14.8198 11.0121 15.0515 10.9262 15.2485 10.7844C15.6228 10.5237 15.7109 10.1149 15.4822 9.72127C15.3755 9.5486 15.2345 9.3997 15.0679 9.2838C14.6196 8.94962 14.1664 8.62301 13.7192 8.2872C13.4872 8.11308 13.266 7.92706 13.1567 7.6383C13.0475 7.34954 13.0745 7.27925 13.3568 7.1884C13.6705 7.08782 13.9928 7.01536 14.3038 6.90667C15.2269 6.58222 15.6893 5.94251 15.7234 4.9643C15.7418 4.44842 15.6628 3.9439 15.546 3.44371C15.533 3.38693 15.5249 3.32853 15.5098 3.24688C16.2112 3.52202 16.8747 3.88545 17.4842 4.32838C19.4089 5.73432 20.6543 7.59558 21.2016 9.92081C21.2368 10.0706 21.2141 10.1025 21.0637 10.103C20.6387 10.103 20.2152 10.1376 19.8042 10.2577C19.0741 10.4707 18.695 10.958 18.6415 11.7512C18.635 11.8443 18.6296 11.9064 18.5204 11.9454C17.5469 12.2925 17.1213 13.0809 17.4101 14.0667C17.508 14.4004 17.5659 14.6286 17.2349 14.8876C16.9239 15.1315 16.9483 15.5419 17.0413 15.9053C17.1397 16.2887 17.2722 16.6623 17.3896 17.0409C17.5599 17.5903 17.5859 18.1332 17.362 18.6804C17.3006 18.8181 17.2743 18.9688 17.2855 19.1191C17.2966 19.2695 17.3448 19.4147 17.4258 19.5418ZM19.8945 12.8181C20.1795 13.1269 20.199 13.4914 20.1168 13.8764C20.0712 14.0728 20.0051 14.2638 19.9194 14.4463C19.7931 14.7208 19.6499 14.9872 19.4906 15.2439C19.3451 15.4851 19.1942 15.7231 19.0276 15.9918C18.6096 15.284 18.1288 14.6437 17.9314 13.8596C17.7914 13.3043 17.9985 12.8257 18.4722 12.5732C18.7032 12.4518 18.9678 12.41 19.225 12.4543C19.4821 12.4986 19.7175 12.6265 19.8945 12.8181ZM18.1099 19.1703C18.0558 19.2157 18.0061 19.3125 17.932 19.2725C17.8579 19.2325 17.8541 19.1346 17.8628 19.0524C17.8677 18.9857 17.8819 18.92 17.9049 18.8572C18.171 18.1937 18.1342 17.5302 17.9282 16.8602C17.806 16.4623 17.6389 16.0778 17.5686 15.6641C17.5372 15.4792 17.5723 15.3175 17.7162 15.1861C17.7881 15.1201 17.8308 15.1028 17.8936 15.2093C18.164 15.6674 18.443 16.1183 18.7167 16.5742C18.9238 16.9192 19.1298 16.9181 19.3386 16.5666C19.7296 15.908 20.186 15.2872 20.4807 14.5734C20.6527 14.1581 20.7593 13.7326 20.7073 13.2756C20.6333 12.6267 20.0881 12.0503 19.3932 11.9162C19.231 11.8848 19.192 11.8302 19.2142 11.6696C19.2775 11.2197 19.5138 10.9363 19.9529 10.8114C20.3661 10.6935 20.7879 10.6768 21.213 10.667C21.3211 10.667 21.3449 10.7081 21.3563 10.8076C21.404 11.2025 21.4309 11.5996 21.4369 11.9973C21.3747 14.8741 20.2817 17.2723 18.111 19.1703H18.1099Z" stroke="#D29868" stroke-width="0.46" mask="url(#path-1-outside-1_581_2878)"/>
</svg>
