<svg width="19" height="13" viewBox="0 0 19 13" fill="none" xmlns="http://www.w3.org/2000/svg">
<path d="M0.75 0.75H18.25V3.36213C17.3175 4.27129 16.75 5.61865 16.75 7.09091C16.75 8.56317 17.3175 9.91053 18.25 10.8197V12.25H0.75V10.8197C1.68248 9.91053 2.25 8.56317 2.25 7.09091C2.25 5.61865 1.68248 4.27129 0.75 3.36213V0.75Z" stroke="#D29868" stroke-width="1.5"/>
<path d="M12.6836 3.5338C12.6634 3.48508 12.6338 3.44081 12.5965 3.40352C12.5592 3.36622 12.5149 3.33663 12.4662 3.31645C12.4175 3.29626 12.3652 3.28587 12.3125 3.28587C12.2598 3.28587 12.2075 3.29626 12.1588 3.31645C12.1101 3.33664 12.0658 3.36622 12.0285 3.40352C12.0285 3.40352 12.0285 3.40352 12.0285 3.40352L6.40352 9.02852C6.36623 9.06581 6.33664 9.11009 6.31646 9.15881C6.29628 9.20754 6.28589 9.25976 6.28589 9.3125C6.28589 9.36524 6.29628 9.41746 6.31646 9.46619C6.33664 9.51491 6.36623 9.55919 6.40352 9.59648C6.44081 9.63377 6.48509 9.66336 6.53381 9.68354C6.58254 9.70372 6.63476 9.71411 6.6875 9.71411C6.74024 9.71411 6.79246 9.70372 6.84119 9.68354C6.88991 9.66336 6.93419 9.63377 6.97148 9.59648L12.5965 3.97148C12.5965 3.97148 12.5965 3.97148 12.5965 3.97148C12.6338 3.93419 12.6634 3.88992 12.6836 3.8412C12.7037 3.79247 12.7141 3.74024 12.7141 3.6875C12.7141 3.63476 12.7037 3.58253 12.6836 3.5338ZM7.53125 5.325C7.32073 5.325 7.11884 5.24137 6.96998 5.09252C6.82113 4.94366 6.7375 4.74177 6.7375 4.53125C6.7375 4.32073 6.82113 4.11884 6.96998 3.96998C7.11884 3.82113 7.32073 3.7375 7.53125 3.7375C7.74177 3.7375 7.94366 3.82113 8.09252 3.96998C8.24137 4.11884 8.325 4.32073 8.325 4.53125C8.325 4.74177 8.24137 4.94366 8.09252 5.09252C7.94366 5.24137 7.74177 5.325 7.53125 5.325ZM7.53125 5.9875C7.91747 5.9875 8.28787 5.83407 8.56097 5.56097C8.83407 5.28787 8.9875 4.91747 8.9875 4.53125C8.9875 4.14503 8.83407 3.77463 8.56097 3.50153C8.28787 3.22843 7.91747 3.075 7.53125 3.075C7.14503 3.075 6.77463 3.22843 6.50153 3.50153C6.22843 3.77463 6.075 4.14503 6.075 4.53125C6.075 4.91747 6.22843 5.28787 6.50153 5.56097C6.77463 5.83407 7.14503 5.9875 7.53125 5.9875ZM11.4688 9.2625C11.2582 9.2625 11.0563 9.17887 10.9075 9.03002C10.7586 8.88116 10.675 8.67927 10.675 8.46875C10.675 8.25823 10.7586 8.05634 10.9075 7.90748C11.0563 7.75863 11.2582 7.675 11.4688 7.675C11.6793 7.675 11.8812 7.75863 12.03 7.90748C12.1789 8.05634 12.2625 8.25823 12.2625 8.46875C12.2625 8.67927 12.1789 8.88116 12.03 9.03002C11.8812 9.17887 11.6793 9.2625 11.4688 9.2625ZM11.4688 9.925C11.855 9.925 12.2254 9.77157 12.4985 9.49847C12.7716 9.22537 12.925 8.85497 12.925 8.46875C12.925 8.08253 12.7716 7.71213 12.4985 7.43903C12.2254 7.16593 11.855 7.0125 11.4688 7.0125C11.0825 7.0125 10.7121 7.16593 10.439 7.43903C10.1659 7.71213 10.0125 8.08253 10.0125 8.46875C10.0125 8.85497 10.1659 9.22537 10.439 9.49847C10.7121 9.77157 11.0825 9.925 11.4688 9.925Z" fill="#D29868" stroke="#D29868" stroke-width="0.1"/>
</svg>
