<svg width="24" height="24" viewBox="0 0 24 24" fill="none" xmlns="http://www.w3.org/2000/svg">
<path d="M4 5.71429C4 4.76751 4.76751 4 5.71429 4L9.14286 4C10.0896 4 10.8571 4.76751 10.8571 5.71429V9.14286C10.8571 10.0896 10.0896 10.8571 9.14286 10.8571H5.71429C4.76751 10.8571 4 10.0896 4 9.14286L4 5.71429ZM5.71429 5.14286C5.39869 5.14286 5.14286 5.39869 5.14286 5.71429V9.14286C5.14286 9.45845 5.39869 9.71429 5.71429 9.71429H9.14286C9.45845 9.71429 9.71429 9.45845 9.71429 9.14286V5.71429C9.71429 5.39869 9.45845 5.14286 9.14286 5.14286H5.71429ZM13.1429 5.71429C13.1429 4.76751 13.9104 4 14.8571 4L18.2857 4C19.2325 4 20 4.76751 20 5.71429V9.14286C20 10.0896 19.2325 10.8571 18.2857 10.8571H14.8571C13.9104 10.8571 13.1429 10.0896 13.1429 9.14286V5.71429ZM14.8571 5.14286C14.5416 5.14286 14.2857 5.39869 14.2857 5.71429V9.14286C14.2857 9.45845 14.5416 9.71429 14.8571 9.71429H18.2857C18.6013 9.71429 18.8571 9.45845 18.8571 9.14286V5.71429C18.8571 5.39869 18.6013 5.14286 18.2857 5.14286H14.8571ZM4 14.8571C4 13.9104 4.76751 13.1429 5.71429 13.1429H9.14286C10.0896 13.1429 10.8571 13.9104 10.8571 14.8571V18.2857C10.8571 19.2325 10.0896 20 9.14286 20H5.71429C4.76751 20 4 19.2325 4 18.2857L4 14.8571ZM5.71429 14.2857C5.39869 14.2857 5.14286 14.5416 5.14286 14.8571V18.2857C5.14286 18.6013 5.39869 18.8571 5.71429 18.8571H9.14286C9.45845 18.8571 9.71429 18.6013 9.71429 18.2857V14.8571C9.71429 14.5416 9.45845 14.2857 9.14286 14.2857H5.71429ZM13.1429 14.8571C13.1429 13.9104 13.9104 13.1429 14.8571 13.1429H18.2857C19.2325 13.1429 20 13.9104 20 14.8571V18.2857C20 19.2325 19.2325 20 18.2857 20H14.8571C13.9104 20 13.1429 19.2325 13.1429 18.2857V14.8571ZM14.8571 14.2857C14.5416 14.2857 14.2857 14.5416 14.2857 14.8571V18.2857C14.2857 18.6013 14.5416 18.8571 14.8571 18.8571H18.2857C18.6013 18.8571 18.8571 18.6013 18.8571 18.2857V14.8571C18.8571 14.5416 18.6013 14.2857 18.2857 14.2857H14.8571Z" fill="#D29868"/>
</svg>
