<svg width="24" height="24" viewBox="0 0 24 24" fill="none" xmlns="http://www.w3.org/2000/svg">
<path d="M20 5.61538C20 5.26856 19.8595 4.93595 19.6095 4.69071C19.3594 4.44547 19.0203 4.30769 18.6667 4.30769H16V3H14.6667V4.30769H9.33333V3H8V4.30769H5.33333C4.97971 4.30769 4.64057 4.44547 4.39052 4.69071C4.14048 4.93595 4 5.26856 4 5.61538V18.6923C4 19.0391 4.14048 19.3717 4.39052 19.617C4.64057 19.8622 4.97971 20 5.33333 20H8V18.6923H5.33333V5.61538H8V6.92308H9.33333V5.61538H14.6667V6.92308H16V5.61538H18.6667V9.53846H20V5.61538Z" fill="#D29868"/>
<path d="M15.5 11L17.2524 14.292L21 14.8193L18.25 17.382L18.9375 21L15.5 19.292L12.0625 21L12.75 17.382L10 14.8193L13.85 14.292L15.5 11Z" fill="#D29868"/>
</svg>
