<svg width="24" height="24" viewBox="0 0 24 24" fill="none" xmlns="http://www.w3.org/2000/svg">
<path d="M8.143 13.1429C8.59765 13.1429 9.03369 12.9623 9.35518 12.6408C9.67667 12.3193 9.85728 11.8832 9.85728 11.4286C9.85728 10.9739 9.67667 10.5379 9.35518 10.2164C9.03369 9.89491 8.59765 9.71429 8.143 9.71429C7.68834 9.71429 7.2523 9.89491 6.93081 10.2164C6.60932 10.5379 6.42871 10.9739 6.42871 11.4286C6.42871 11.8832 6.60932 12.3193 6.93081 12.6408C7.2523 12.9623 7.68834 13.1429 8.143 13.1429Z" fill="#D29868"/>
<path d="M19 17.7143C19 18.3205 18.7592 18.9019 18.3305 19.3305C17.9019 19.7592 17.3205 20 16.7143 20H5.28571C4.67951 20 4.09812 19.7592 3.66947 19.3305C3.24082 18.9019 3 18.3205 3 17.7143V8.57143C3 7.96562 3.2405 7.38458 3.66866 6.95599C4.09682 6.5274 4.67762 6.28632 5.28343 6.28571C5.28343 5.67951 5.52424 5.09812 5.9529 4.66947C6.38155 4.24082 6.96293 4 7.56914 4H18.9977C19.6039 4 20.1853 4.24082 20.614 4.66947C21.0426 5.09812 21.2834 5.67951 21.2834 6.28571V15.4286C21.2834 16.0344 21.0429 16.6154 20.6148 17.044C20.1866 17.4726 19.6058 17.7137 19 17.7143ZM18.9977 5.14286H7.56914C7.26604 5.14286 6.97535 5.26326 6.76102 5.47759C6.54669 5.69192 6.42629 5.98261 6.42629 6.28571H16.7143C17.3205 6.28571 17.9019 6.52653 18.3305 6.95518C18.7592 7.38384 19 7.96522 19 8.57143V16.5714C19.3027 16.5708 19.5928 16.4501 19.8066 16.2359C20.0205 16.0216 20.1406 15.7313 20.1406 15.4286V6.28571C20.1406 5.98261 20.0202 5.69192 19.8058 5.47759C19.5915 5.26326 19.3008 5.14286 18.9977 5.14286ZM5.28571 7.42857C4.98261 7.42857 4.69192 7.54898 4.47759 7.76331C4.26327 7.97763 4.14286 8.26832 4.14286 8.57143V17.7143L7.16686 15.024C7.26027 14.9309 7.38299 14.873 7.51422 14.8601C7.64544 14.8472 7.7771 14.8801 7.88686 14.9531L10.9269 16.9794L15.1669 12.7394C15.2516 12.6546 15.3609 12.5986 15.4792 12.5793C15.5976 12.56 15.719 12.5785 15.8263 12.632L17.8571 14.8571V8.57143C17.8571 8.26832 17.7367 7.97763 17.5224 7.76331C17.3081 7.54898 17.0174 7.42857 16.7143 7.42857H5.28571Z" fill="#D29868"/>
</svg>
