<svg width="24" height="24" viewBox="0 0 24 24" fill="none" xmlns="http://www.w3.org/2000/svg">
<path d="M4 4V5H20V4H4ZM5 6.844V5.906H4V6.844H5ZM11.5 5.906V6.844H12.5V5.906H11.5ZM19 5.906V6.844H20V5.906H19ZM5 8.719V7.78H4V8.718H5V8.719ZM11.5 7.781V8.719H12.5V7.78H11.5V7.781ZM19 7.781V8.719H20V7.78H19V7.781ZM5 10.594V9.656H4V10.594H5ZM11.5 9.656V10.594H12.5V9.656H11.5ZM19 9.656V10.594H20V9.656H19ZM4.5 12.5H4.969V12.469H5V11.53H4.969V11.5H4.5V11.531H4V12.469H4.5V12.5ZM5.906 12.5H6.844V11.5H5.906V12.5ZM7.781 12.5H8.719V11.5H7.78V12.5H7.781ZM9.656 12.5H10.594V11.5H9.656V12.5ZM12.469 12.5V12.469H12.5V11.53H12.469V11.5H11.53V11.531H11.5V12.469H11.531V12.5H12.469ZM13.406 12.5H14.344V11.5H13.406V12.5ZM15.281 12.5H16.219V11.5H15.281V12.5ZM17.156 12.5H18.094V11.5H17.156V12.5ZM19.031 12.5H19.5V12.469H20V11.53H19.5V11.5H19.031V11.531H19V12.469H19.031V12.5ZM4 13.406V14.344H5V13.406H4ZM11.5 13.406V14.344H12.5V13.406H11.5ZM20 14.344V13.406H19V14.344H20ZM4 15.281V16.219H5V15.281H4ZM11.5 15.281V16.219H12.5V15.281H11.5ZM20 16.219V15.281H19V16.219H20ZM4 17.156V18.094H5V17.156H4ZM11.5 17.156V18.094H12.5V17.156H11.5ZM20 18.094V17.156H19V18.094H20ZM4 20H4.969V19.5H5V19.031H4.969V19H4.5V19.031H4V20ZM5.906 20H6.844V19H5.906V20ZM7.781 20H8.719V19H7.78V20H7.781ZM9.656 20H10.594V19H9.656V20ZM11.531 19.5V20H12.469V19.5H12.5V19.031H12.469V19H11.53V19.031H11.5V19.5H11.531ZM13.406 20H14.344V19H13.406V20ZM15.281 20H16.219V19H15.281V20ZM17.156 20H18.094V19H17.156V20ZM19.031 19.5V20H20V19.031H19.5V19H19.031V19.031H19V19.5H19.031Z" fill="#D29868"/>
</svg>
