<svg width="24" height="24" viewBox="0 0 24 24" fill="none" xmlns="http://www.w3.org/2000/svg">
<path d="M21.3335 20C21.3335 20 22.6668 20 22.6668 18.6667C22.6668 17.3333 21.3335 13.3333 16.0002 13.3333C10.6668 13.3333 9.3335 17.3333 9.3335 18.6667C9.3335 20 10.6668 20 10.6668 20H21.3335ZM10.6966 18.6667C10.692 18.6661 10.6855 18.6653 10.6777 18.664C10.674 18.6634 10.6704 18.6627 10.6668 18.662C10.6688 18.31 10.8893 17.2892 11.6792 16.3677C12.418 15.5058 13.7104 14.6667 16.0002 14.6667C18.2899 14.6667 19.5824 15.5058 20.3212 16.3677C21.111 17.2892 21.3316 18.31 21.3335 18.662C21.3299 18.6627 21.3263 18.6634 21.3226 18.664C21.3148 18.6653 21.3083 18.6661 21.3037 18.6667H10.6966Z" fill="#D29868"/>
<path d="M16 10.6667C17.4728 10.6667 18.6667 9.47276 18.6667 8C18.6667 6.52724 17.4728 5.33333 16 5.33333C14.5272 5.33333 13.3333 6.52724 13.3333 8C13.3333 9.47276 14.5272 10.6667 16 10.6667ZM20 8C20 10.2091 18.2091 12 16 12C13.7909 12 12 10.2091 12 8C12 5.79086 13.7909 4 16 4C18.2091 4 20 5.79086 20 8Z" fill="#D29868"/>
<path d="M10.5814 13.7066C10.091 13.5498 9.54621 13.4357 8.94187 13.3774C8.64276 13.3485 8.32907 13.3333 8.00016 13.3333C2.66683 13.3333 1.3335 17.3333 1.3335 18.6667C1.3335 19.5556 1.77794 20 2.66683 20H8.28864C8.10091 19.6212 8.00016 19.1722 8.00016 18.6667C8.00016 17.3196 8.50316 15.944 9.45325 14.7949C9.77786 14.4023 10.1547 14.0362 10.5814 13.7066ZM7.89355 14.6673C7.0969 15.8848 6.66683 17.2729 6.66683 18.6667H2.66683C2.66683 18.319 2.88582 17.2933 3.67917 16.3677C4.40641 15.5193 5.67015 14.6929 7.89355 14.6673Z" fill="#D29868"/>
<path d="M3.3335 8.66666C3.3335 6.45753 5.12436 4.66666 7.3335 4.66666C9.54263 4.66666 11.3335 6.45753 11.3335 8.66666C11.3335 10.8758 9.54263 12.6667 7.3335 12.6667C5.12436 12.6667 3.3335 10.8758 3.3335 8.66666ZM7.3335 6C5.86074 6 4.66683 7.1939 4.66683 8.66666C4.66683 10.1394 5.86074 11.3333 7.3335 11.3333C8.80626 11.3333 10.0002 10.1394 10.0002 8.66666C10.0002 7.1939 8.80626 6 7.3335 6Z" fill="#D29868"/>
</svg>
