<svg width="24" height="24" viewBox="0 0 24 24" fill="none" xmlns="http://www.w3.org/2000/svg">
<path d="M17.7143 15.8571V11.4C17.2857 11.4857 16.8571 11.5714 16.4286 11.5714H16V16.7143H7.42857V10.7143C7.42857 8.31429 9.31429 6.42857 11.7143 6.42857C11.8 5.31429 12.3143 4.37143 13 3.6C12.7429 3.25714 12.2286 3 11.7143 3C10.7714 3 10 3.77143 10 4.71429V4.97143C7.42857 5.74286 5.71429 8.05714 5.71429 10.7143V15.8571L4 17.5714V18.4286H19.4286V17.5714L17.7143 15.8571ZM10 19.2857C10 20.2286 10.7714 21 11.7143 21C12.6571 21 13.4286 20.2286 13.4286 19.2857H10ZM19.4286 6.85714C19.4286 8.48571 18.0571 9.85714 16.4286 9.85714C14.8 9.85714 13.4286 8.48571 13.4286 6.85714C13.4286 5.22857 14.8 3.85714 16.4286 3.85714C18.0571 3.85714 19.4286 5.22857 19.4286 6.85714Z" fill="#D29868"/>
</svg>
