<svg width="24" height="24" viewBox="0 0 24 24" fill="none" xmlns="http://www.w3.org/2000/svg">
<path d="M11.25 1.5V12H12.75V1.5H11.25Z" fill="#D29868"/>
<path d="M4.5 13.2187C4.5 10.3959 6.05913 7.93623 8.36677 6.65572L7.63896 5.34412C4.87406 6.87836 3 9.82914 3 13.2187C3 18.1892 7.02944 22.2187 12 22.2187C16.9706 22.2187 21 18.1892 21 13.2187C21 9.88645 19.1887 6.97818 16.5005 5.42317L15.7495 6.72157C17.9932 8.01949 19.5 10.4436 19.5 13.2187C19.5 17.3608 16.1421 20.7187 12 20.7187C7.85786 20.7187 4.5 17.3608 4.5 13.2187Z" fill="#D29868"/>
</svg>
