<svg width="24" height="24" viewBox="0 0 24 24" fill="none" xmlns="http://www.w3.org/2000/svg">
<path d="M12.6976 4.10633C12.5708 4.05525 12.4292 4.05525 12.3024 4.10633L5.96137 6.65476L12.5 9.2822L19.0386 6.65476L12.6976 4.10633ZM19.9375 7.44374L13.0312 10.2196V18.6773L19.9375 15.9015V7.44481V7.44374ZM11.9688 18.6784V10.2185L5.0625 7.44374V15.9026L11.9688 18.6784ZM11.9082 3.1145C12.2881 2.96183 12.7119 2.96183 13.0918 3.1145L20.6664 6.15938C20.7649 6.19904 20.8493 6.26742 20.9087 6.35571C20.9682 6.444 21 6.54816 21 6.65476V15.9026C20.9999 16.1159 20.9361 16.3243 20.817 16.5009C20.6979 16.6775 20.5288 16.8142 20.3317 16.8933L12.6976 19.9617C12.5708 20.0128 12.4292 20.0128 12.3024 19.9617L4.66938 16.8933C4.47202 16.8143 4.30275 16.6777 4.18343 16.5011C4.06411 16.3245 4.00022 16.116 4 15.9026V6.65476C4.00002 6.54816 4.03182 6.444 4.09128 6.35571C4.15074 6.26742 4.23514 6.19904 4.33363 6.15938L11.9082 3.1145Z" fill="#C38762"/>
</svg>
