<svg width="24" height="24" viewBox="0 0 24 24" fill="none" xmlns="http://www.w3.org/2000/svg">
<path d="M3 14.0728H5.7728C6.69203 14.0728 7.57362 14.4377 8.22362 15.0872C8.87362 15.7368 9.23879 16.6178 9.23879 17.5364M5.0796 17.5364H12.0116C12.747 17.5364 13.4522 17.8283 13.9722 18.348C14.4922 18.8676 14.7844 19.5724 14.7844 20.3073C14.7844 20.491 14.7113 20.6672 14.5813 20.7971C14.4513 20.927 14.275 21 14.0912 21H3M14.4378 14.0728L8.89219 8.94661C5.86984 5.91248 10.2786 0.0381779 14.4378 4.79026C18.597 0.0520323 23.0473 5.92633 19.9834 8.94661L14.4378 14.0728Z" stroke="#D29868" stroke-width="1.5" stroke-linecap="round" stroke-linejoin="round"/>
</svg>
