<svg width="24" height="24" viewBox="0 0 24 24" fill="none" xmlns="http://www.w3.org/2000/svg">
<path d="M12.6212 4.40274L14.5827 8.53221C14.6273 8.63703 14.6975 8.72781 14.7863 8.79553C14.875 8.86325 14.9792 8.90552 15.0885 8.91815L19.4187 9.5871C19.5441 9.6039 19.6623 9.65756 19.7596 9.7418C19.8568 9.82604 19.929 9.93739 19.9678 10.0628C20.0066 10.1883 20.0104 10.3227 19.9787 10.4503C19.947 10.5779 19.8812 10.6935 19.7888 10.7835L16.6676 14.0125C16.588 14.0901 16.5282 14.1872 16.4937 14.2951C16.4592 14.4029 16.4512 14.518 16.4703 14.6299L17.2228 19.1711C17.2446 19.3016 17.2308 19.4358 17.183 19.5585C17.1353 19.6813 17.0554 19.7875 16.9526 19.8653C16.8498 19.943 16.7281 19.9891 16.6014 19.9983C16.4747 20.0075 16.348 19.9794 16.2359 19.9172L12.3374 17.7689C12.2376 17.7178 12.1279 17.6912 12.0167 17.6912C11.9055 17.6912 11.7957 17.7178 11.6959 17.7689L7.79751 19.9172C7.68535 19.9794 7.55871 20.0075 7.432 19.9983C7.30529 19.9891 7.18359 19.943 7.08076 19.8653C6.97792 19.7875 6.89808 19.6813 6.85032 19.5585C6.80255 19.4358 6.78878 19.3016 6.81057 19.1711L7.56311 14.5785C7.58218 14.4666 7.57411 14.3514 7.53964 14.2436C7.50516 14.1357 7.44538 14.0386 7.36572 13.961L4.20751 10.7835C4.11407 10.691 4.04836 10.5722 4.01834 10.4416C3.98832 10.3109 3.99527 10.174 4.03835 10.0474C4.08144 9.92077 4.15881 9.8099 4.26109 9.72821C4.36337 9.64651 4.48617 9.59749 4.61462 9.5871L8.94483 8.91815C9.05413 8.90552 9.15835 8.86325 9.24709 8.79553C9.33584 8.72781 9.40602 8.63703 9.45063 8.53221L11.4122 4.40274C11.4656 4.28247 11.5509 4.18064 11.658 4.10928C11.7651 4.03792 11.8896 4 12.0167 4C12.1438 4 12.2682 4.03792 12.3754 4.10928C12.4825 4.18064 12.5678 4.28247 12.6212 4.40274Z" stroke="#D29868" stroke-width="1.5" stroke-linecap="round" stroke-linejoin="round"/>
</svg>
