<svg width="24" height="24" viewBox="0 0 24 24" fill="none" xmlns="http://www.w3.org/2000/svg">
<path fill-rule="evenodd" clip-rule="evenodd" d="M15.5 6.00217C15.303 6.00217 15.108 6.04096 14.926 6.11631C14.744 6.19167 14.5786 6.30212 14.4393 6.44136C14.3001 6.58061 14.1896 6.74591 14.1142 6.92784C14.0388 7.10976 14 7.30475 14 7.50167C14 7.69859 14.0388 7.89358 14.1142 8.0755C14.1896 8.25743 14.3001 8.42273 14.4393 8.56198C14.5786 8.70122 14.744 8.81167 14.926 8.88703C15.108 8.96238 15.303 9.00117 15.5 9.00117C15.8978 9.00117 16.2794 8.84319 16.5607 8.56198C16.842 8.28077 17 7.89936 17 7.50167C17 7.10398 16.842 6.72258 16.5607 6.44136C16.2794 6.16015 15.8978 6.00217 15.5 6.00217ZM13.05 7.00184C13.1648 6.43688 13.4714 5.92896 13.9179 5.56413C14.3644 5.1993 14.9233 5 15.5 5C16.0767 5 16.6356 5.1993 17.0821 5.56413C17.5286 5.92896 17.8352 6.43688 17.95 7.00184H20V8.0015H17.95C17.8352 8.56646 17.5286 9.07438 17.0821 9.43921C16.6356 9.80404 16.0767 10.0033 15.5 10.0033C14.9233 10.0033 14.3644 9.80404 13.9179 9.43921C13.4714 9.07438 13.1648 8.56646 13.05 8.0015H4V7.00184H13.05ZM8.5 11.0005C8.10218 11.0005 7.72064 11.1585 7.43934 11.4397C7.15804 11.7209 7 12.1023 7 12.5C7 12.8977 7.15804 13.2791 7.43934 13.5603C7.72064 13.8415 8.10218 13.9995 8.5 13.9995C8.89782 13.9995 9.27936 13.8415 9.56066 13.5603C9.84196 13.2791 10 12.8977 10 12.5C10 12.1023 9.84196 11.7209 9.56066 11.4397C9.27936 11.1585 8.89782 11.0005 8.5 11.0005ZM6.05 12.0002C6.16476 11.4352 6.47136 10.9273 6.91787 10.5625C7.36438 10.1976 7.92332 9.99833 8.5 9.99833C9.07668 9.99833 9.63562 10.1976 10.0821 10.5625C10.5286 10.9273 10.8352 11.4352 10.95 12.0002H20V12.9998H10.95C10.8352 13.5648 10.5286 14.0727 10.0821 14.4375C9.63562 14.8024 9.07668 15.0017 8.5 15.0017C7.92332 15.0017 7.36438 14.8024 6.91787 14.4375C6.47136 14.0727 6.16476 13.5648 6.05 12.9998H4V12.0002H6.05ZM15.5 15.9988C15.1022 15.9988 14.7206 16.1568 14.4393 16.438C14.158 16.7192 14 17.1006 14 17.4983C14 17.896 14.158 18.2774 14.4393 18.5586C14.7206 18.8398 15.1022 18.9978 15.5 18.9978C15.8978 18.9978 16.2794 18.8398 16.5607 18.5586C16.842 18.2774 17 17.896 17 17.4983C17 17.1006 16.842 16.7192 16.5607 16.438C16.2794 16.1568 15.8978 15.9988 15.5 15.9988ZM13.05 16.9985C13.1648 16.4335 13.4714 15.9256 13.9179 15.5608C14.3644 15.196 14.9233 14.9967 15.5 14.9967C16.0767 14.9967 16.6356 15.196 17.0821 15.5608C17.5286 15.9256 17.8352 16.4335 17.95 16.9985H20V17.9982H17.95C17.8352 18.5631 17.5286 19.071 17.0821 19.4359C16.6356 19.8007 16.0767 20 15.5 20C14.9233 20 14.3644 19.8007 13.9179 19.4359C13.4714 19.071 13.1648 18.5631 13.05 17.9982H4V16.9985H13.05Z" fill="#D29868"/>
</svg>
