<svg width="24" height="24" viewBox="0 0 24 24" fill="none" xmlns="http://www.w3.org/2000/svg">
<path d="M6.15638 4.37249C6.35824 4.13607 6.65292 4 6.96309 4H16.0369C16.3471 4 16.6418 4.13607 16.8436 4.37249L19.6163 7.61999C19.8639 7.90998 20 8.27931 20 8.66125V8.93333C20 10.3325 18.8702 11.4667 17.4766 11.4667C16.6668 11.4667 15.9461 11.0838 15.4844 10.4884C15.0226 11.0838 14.302 11.4667 13.4922 11.4667C12.6824 11.4667 11.9617 11.0838 11.5 10.4884C11.0383 11.0838 10.3176 11.4667 9.50781 11.4667C8.69804 11.4667 7.97737 11.0838 7.51563 10.4884C7.05389 11.0838 6.33321 11.4667 5.52344 11.4667C4.12978 11.4667 3 10.3325 3 8.93333V8.66125C3 8.27931 3.13609 7.90997 3.38368 7.61999L6.15638 4.37249ZM8.04688 8.93333C8.04688 9.74335 8.70096 10.4 9.50781 10.4C10.3147 10.4 10.9688 9.74335 10.9688 8.93333C10.9688 8.63878 11.2066 8.4 11.5 8.4C11.7934 8.4 12.0312 8.63878 12.0312 8.93333C12.0312 9.74335 12.6853 10.4 13.4922 10.4C14.299 10.4 14.9531 9.74335 14.9531 8.93333C14.9531 8.63878 15.191 8.4 15.4844 8.4C15.7778 8.4 16.0156 8.63878 16.0156 8.93333C16.0156 9.74335 16.6697 10.4 17.4766 10.4C18.2834 10.4 18.9375 9.74335 18.9375 8.93333V8.66125C18.9375 8.53394 18.8921 8.41083 18.8096 8.31416L16.0369 5.06667H6.96309L4.1904 8.31416C4.10786 8.41083 4.0625 8.53394 4.0625 8.66125V8.93333C4.0625 9.74335 4.71658 10.4 5.52344 10.4C6.33029 10.4 6.98438 9.74335 6.98438 8.93333C6.98438 8.63878 7.22222 8.4 7.51562 8.4C7.80903 8.4 8.04688 8.63878 8.04688 8.93333ZM4.59375 12C4.88715 12 5.125 12.2388 5.125 12.5333V18.9333H17.875V12.5333C17.875 12.2388 18.1128 12 18.4062 12C18.6997 12 18.9375 12.2388 18.9375 12.5333V18.9333H19.4688C19.7622 18.9333 20 19.1721 20 19.4667C20 19.7612 19.7622 20 19.4688 20H3.53125C3.23785 20 3 19.7612 3 19.4667C3 19.1721 3.23785 18.9333 3.53125 18.9333H4.0625V12.5333C4.0625 12.2388 4.30035 12 4.59375 12ZM6.71875 12.5333C7.01215 12.5333 7.25 12.7721 7.25 13.0667V16.8H15.75V13.0667C15.75 12.7721 15.9878 12.5333 16.2812 12.5333C16.5747 12.5333 16.8125 12.7721 16.8125 13.0667V16.8C16.8125 17.3891 16.3368 17.8667 15.75 17.8667H7.25C6.6632 17.8667 6.1875 17.3891 6.1875 16.8V13.0667C6.1875 12.7721 6.42535 12.5333 6.71875 12.5333Z" fill="#D29868"/>
</svg>
