<svg width="24" height="24" viewBox="0 0 24 24" fill="none" xmlns="http://www.w3.org/2000/svg">
<g clip-path="url(#clip0_14_25139)">
<path d="M19.8605 11.7239C18.811 10.6511 17.4116 9.9171 15.9539 9.63479C15.3125 9.4654 14.6711 9.35248 14.0297 9.29602C15.6623 7.43277 15.3708 4.60966 13.4466 3.02872C11.5225 1.44778 8.6071 1.73009 6.97448 3.59334C5.34186 5.45659 5.6334 8.2797 7.55756 9.86064C7.9074 10.143 8.25725 10.3688 8.6071 10.4817V11.7239L7.67417 10.877C6.85786 10.0865 5.51678 10.0865 4.64217 10.877C3.82586 11.6674 3.76755 12.9096 4.58386 13.7001L7.26602 16.749C7.38263 17.5395 7.67417 18.2735 8.08233 18.951C8.37387 19.4592 8.78202 19.9674 9.19018 20.3626V21.4354C9.19018 21.7742 9.42341 22 9.77326 22H17.7031C17.9947 22 18.2862 21.7177 18.2862 21.4354V19.9674C19.394 18.6687 19.9771 17.0313 19.9771 15.3939V12.1191C20.0354 11.8933 19.9771 11.7804 19.8605 11.7239ZM7.03279 6.41645C7.03279 4.5532 8.6071 3.08518 10.5313 3.14164C12.4554 3.14164 13.9714 4.66612 13.9131 6.52937C13.9131 7.54569 13.4466 8.44909 12.6303 9.07017V6.24706C12.6006 5.75775 12.3786 5.29799 12.01 4.96205C11.6414 4.62611 11.1541 4.43942 10.6479 4.44027C9.59833 4.38381 8.66541 5.23074 8.66541 6.24706V9.18309C7.67417 8.61847 7.09109 7.54569 7.03279 6.41645ZM18.8693 15.3375C18.9276 16.8055 18.4028 18.217 17.4116 19.3463C17.295 19.4592 17.1783 19.5721 17.1783 19.7415V20.9272H10.4146V20.1367C10.4146 19.9674 10.298 19.798 10.1814 19.6851C9.77326 19.3463 9.42341 18.951 9.13187 18.4429C8.78202 17.8783 8.54879 17.2007 8.43218 16.5232C8.43218 16.4102 8.37387 16.2973 8.31556 16.1844L5.51678 12.9661C5.34186 12.7967 5.22524 12.5708 5.22524 12.2885C5.22524 12.0627 5.34186 11.7804 5.51678 11.611C5.92494 11.2722 6.50802 11.2722 6.91617 11.611L8.6071 13.2484V14.9422L9.71495 14.3776V6.24706C9.77325 5.85183 10.1231 5.51305 10.5896 5.56952C10.9977 5.56952 11.4059 5.85183 11.4059 6.24706V12.7402L12.572 12.9661V10.3688C12.6303 10.3123 12.6886 10.3123 12.747 10.2559C13.1551 10.2559 13.5633 10.3123 13.9714 10.3688V13.2484L14.9043 13.4178V10.4817L15.604 10.6511C15.8956 10.7076 16.1871 10.8205 16.4787 10.9334V13.7565L17.4116 13.9259V11.3287C17.9364 11.5545 18.4028 11.8933 18.811 12.2885L18.8693 15.3375Z" fill="#D29868"/>
</g>
<defs>
<clipPath id="clip0_14_25139">
<rect width="24" height="24" fill="white"/>
</clipPath>
</defs>
</svg>
