<svg width="24" height="24" viewBox="0 0 24 24" fill="none" xmlns="http://www.w3.org/2000/svg">
<path d="M12 3.33333C10.2319 3.33333 8.5362 4.03571 7.28595 5.28595C6.03571 6.5362 5.33333 8.23189 5.33333 10V11.3333H6.66667C7.02029 11.3333 7.35943 11.4738 7.60948 11.7239C7.85952 11.9739 8 12.313 8 12.6667V16.6667C8 17.0203 7.85952 17.3594 7.60948 17.6095C7.35943 17.8595 7.02029 18 6.66667 18H5.33333C4.97971 18 4.64057 17.8595 4.39052 17.6095C4.14048 17.3594 4 17.0203 4 16.6667V10C4 8.94943 4.20693 7.90914 4.60896 6.93853C5.011 5.96793 5.60028 5.08601 6.34315 4.34315C7.08601 3.60028 7.96793 3.011 8.93853 2.60896C9.90914 2.20693 10.9494 2 12 2C13.0506 2 14.0909 2.20693 15.0615 2.60896C16.0321 3.011 16.914 3.60028 17.6569 4.34315C18.3997 5.08601 18.989 5.96793 19.391 6.93853C19.7931 7.90914 20 8.94943 20 10V18C20 18.8841 19.6488 19.7319 19.0237 20.357C18.3986 20.9821 17.5507 21.3333 16.6667 21.3333H13.8213C13.7043 21.536 13.536 21.7043 13.3333 21.8214C13.1306 21.9384 12.9007 22 12.6667 22H11.3333C10.9797 22 10.6406 21.8595 10.3905 21.6095C10.1405 21.3594 10 21.0203 10 20.6667C10 20.313 10.1405 19.9739 10.3905 19.7239C10.6406 19.4738 10.9797 19.3333 11.3333 19.3333H12.6667C12.9007 19.3333 13.1306 19.395 13.3333 19.512C13.536 19.629 13.7043 19.7973 13.8213 20H16.6667C17.1971 20 17.7058 19.7893 18.0809 19.4142C18.456 19.0391 18.6667 18.5304 18.6667 18H17.3333C16.9797 18 16.6406 17.8595 16.3905 17.6095C16.1405 17.3594 16 17.0203 16 16.6667V12.6667C16 12.313 16.1405 11.9739 16.3905 11.7239C16.6406 11.4738 16.9797 11.3333 17.3333 11.3333H18.6667V10C18.6667 9.12452 18.4942 8.25761 18.1592 7.44878C17.8242 6.63994 17.3331 5.90501 16.714 5.28595C16.095 4.6669 15.3601 4.17583 14.5512 3.8408C13.7424 3.50577 12.8755 3.33333 12 3.33333Z" fill="#D29868"/>
</svg>
