<svg width="24" height="24" viewBox="0 0 24 24" fill="none" xmlns="http://www.w3.org/2000/svg">
<path d="M5.65387 5.32849C5.40343 5.00649 4.92745 4.97686 4.639 5.26531L3.60508 6.29923C3.1216 6.78271 2.94387 7.46766 3.1551 8.06847C4.00338 10.4812 5.39215 12.7467 7.32272 14.6773C9.25329 16.6078 11.5188 17.9966 13.9315 18.8449C14.5323 19.0561 15.2173 18.8784 15.7008 18.3949L16.7347 17.361C17.0231 17.0726 16.9935 16.5966 16.6715 16.3461L14.3653 14.5524C14.2008 14.4245 13.9866 14.3793 13.7845 14.4298L11.5954 14.9771C11.0008 15.1257 10.3718 14.9515 9.93845 14.5181L7.48187 12.0616C7.04849 11.6282 6.87427 10.9992 7.02292 10.4046L7.57019 8.21553C7.62073 8.01336 7.57552 7.79918 7.44758 7.63468L5.65387 5.32849ZM3.88477 4.51108C4.62689 3.76896 5.8515 3.8452 6.49583 4.67363L8.28954 6.97983C8.6187 7.40304 8.73502 7.95409 8.60498 8.47423L8.05772 10.6633C7.99994 10.8944 8.06766 11.1389 8.2361 11.3073L10.6927 13.7639C10.8611 13.9323 11.1056 14.0001 11.3367 13.9423L13.5258 13.395C14.0459 13.265 14.597 13.3813 15.0202 13.7105L17.3264 15.5042C18.1548 16.1485 18.231 17.3731 17.4889 18.1152L16.455 19.1492C15.7153 19.8889 14.6089 20.2137 13.5778 19.8512C11.0175 18.9511 8.61438 17.4774 6.56849 15.4315C4.5226 13.3856 3.04895 10.9825 2.14884 8.42225C1.78632 7.39112 2.11113 6.28472 2.85085 5.545L3.88477 4.51108Z" fill="#D29868"/>
<path d="M15.2 4.6C15.2 4.26863 15.4686 4 15.8 4H20.6C20.9314 4 21.2 4.26863 21.2 4.6V9.4C21.2 9.73137 20.9314 10 20.6 10C20.2686 10 20 9.73137 20 9.4V6.04853L15.0243 11.0243C14.7899 11.2586 14.4101 11.2586 14.1757 11.0243C13.9414 10.7899 13.9414 10.4101 14.1757 10.1757L19.1515 5.2H15.8C15.4686 5.2 15.2 4.93137 15.2 4.6Z" fill="#D29868"/>
</svg>
